# MagicaVoxel @ Ephtracy

# group
o 

# material
mtllib 1.mtl
usemtl palette

# normals
vn -1 0 0
vn 1 0 0
vn 0 0 1
vn 0 0 -1
vn 0 -1 0
vn 0 1 0

# texcoords
vt 0.974609 0.5
vt 0.978516 0.5
vt 0.986328 0.5

# verts
v 0 2 0
v 0 2 -4
v 0 2.1 0
v 0 2.1 -4
v 0 2.3 0
v 0 2.3 -4
v 0 2.4 0
v 0 2.4 -4
v 0.1 2.4 -0.1
v 0.1 2.4 -3.9
v 0.1 2.5 -0.1
v 0.1 2.5 -3.9
v 0.2 2.5 -0.1
v 0.2 2.5 -3.9
v 0.2 6 -0.1
v 0.2 6 -3.9
v 0.4 2.5 -0.1
v 0.4 2.5 -3.9
v 0.4 6 -0.1
v 0.4 6 -3.9
v 0.6 2.5 -0.1
v 0.6 2.5 -3.9
v 0.6 6 -0.1
v 0.6 6 -3.9
v 0.8 2.5 -0.1
v 0.8 2.5 -3.9
v 0.8 6 -0.1
v 0.8 6 -3.9
v 1 2.5 -0.1
v 1 2.5 -3.9
v 1 6 -0.1
v 1 6 -3.9
v 1.2 2.5 -0.1
v 1.2 2.5 -3.9
v 1.2 6 -0.1
v 1.2 6 -3.9
v 1.4 2.5 -0.1
v 1.4 2.5 -3.9
v 1.4 6 -0.1
v 1.4 6 -3.9
v 1.6 2.5 -0.1
v 1.6 2.5 -3.9
v 1.6 6 -0.1
v 1.6 6 -3.9
v 1.8 2.5 -0.1
v 1.8 2.5 -3.9
v 1.8 6 -0.1
v 1.8 6 -3.9
v 2 2.5 -0.1
v 2 2.5 -3.9
v 2 6 -0.1
v 2 6 -3.9
v 2.2 2.5 -0.1
v 2.2 2.5 -3.9
v 2.2 6 -0.1
v 2.2 6 -3.9
v 2.4 2.5 -0.1
v 2.4 2.5 -3.9
v 2.4 6 -0.1
v 2.4 6 -3.9
v 2.6 2.5 -0.1
v 2.6 2.5 -3.9
v 2.6 6 -0.1
v 2.6 6 -3.9
v 2.8 2.5 -0.1
v 2.8 2.5 -3.9
v 2.8 6 -0.1
v 2.8 6 -3.9
v 3 2.5 -0.1
v 3 2.5 -3.9
v 3 6 -0.1
v 3 6 -3.9
v 3.2 2.5 -0.1
v 3.2 2.5 -3.9
v 3.2 6 -0.1
v 3.2 6 -3.9
v 3.4 2.5 -0.1
v 3.4 2.5 -3.9
v 3.4 6 -0.1
v 3.4 6 -3.9
v 3.6 2.5 -0.1
v 3.6 2.5 -3.9
v 3.6 6 -0.1
v 3.6 6 -3.9
v 0.3 2.5 -0.1
v 0.3 2.5 -3.9
v 0.3 6 -0.1
v 0.3 6 -3.9
v 0.5 2.5 -0.1
v 0.5 2.5 -3.9
v 0.5 6 -0.1
v 0.5 6 -3.9
v 0.7 2.5 -0.1
v 0.7 2.5 -3.9
v 0.7 6 -0.1
v 0.7 6 -3.9
v 0.9 2.5 -0.1
v 0.9 2.5 -3.9
v 0.9 6 -0.1
v 0.9 6 -3.9
v 1.1 2.5 -0.1
v 1.1 2.5 -3.9
v 1.1 6 -0.1
v 1.1 6 -3.9
v 1.3 2.5 -0.1
v 1.3 2.5 -3.9
v 1.3 6 -0.1
v 1.3 6 -3.9
v 1.5 2.5 -0.1
v 1.5 2.5 -3.9
v 1.5 6 -0.1
v 1.5 6 -3.9
v 1.7 2.5 -0.1
v 1.7 2.5 -3.9
v 1.7 6 -0.1
v 1.7 6 -3.9
v 1.9 2.5 -0.1
v 1.9 2.5 -3.9
v 1.9 6 -0.1
v 1.9 6 -3.9
v 2.1 2.5 -0.1
v 2.1 2.5 -3.9
v 2.1 6 -0.1
v 2.1 6 -3.9
v 2.3 2.5 -0.1
v 2.3 2.5 -3.9
v 2.3 6 -0.1
v 2.3 6 -3.9
v 2.5 2.5 -0.1
v 2.5 2.5 -3.9
v 2.5 6 -0.1
v 2.5 6 -3.9
v 2.7 2.5 -0.1
v 2.7 2.5 -3.9
v 2.7 6 -0.1
v 2.7 6 -3.9
v 2.9 2.5 -0.1
v 2.9 2.5 -3.9
v 2.9 6 -0.1
v 2.9 6 -3.9
v 3.1 2.5 -0.1
v 3.1 2.5 -3.9
v 3.1 6 -0.1
v 3.1 6 -3.9
v 3.3 2.5 -0.1
v 3.3 2.5 -3.9
v 3.3 6 -0.1
v 3.3 6 -3.9
v 3.5 2.5 -0.1
v 3.5 2.5 -3.9
v 3.5 6 -0.1
v 3.5 6 -3.9
v 3.7 2.5 -0.1
v 3.7 2.5 -3.9
v 3.7 6 -0.1
v 3.7 6 -3.9
v 3.8 2.4 -0.1
v 3.8 2.4 -3.9
v 3.8 2.5 -0.1
v 3.8 2.5 -3.9
v 3.9 2 0
v 3.9 2 -4
v 3.9 2.1 0
v 3.9 2.1 -4
v 3.9 2.3 0
v 3.9 2.3 -4
v 3.9 2.4 0
v 3.9 2.4 -4
v 0 2 0
v 0 2.1 0
v 0 2.3 0
v 0 2.4 0
v 3.9 2 0
v 3.9 2.1 0
v 3.9 2.3 0
v 3.9 2.4 0
v 0.1 2.4 -0.1
v 0.1 2.5 -0.1
v 0.2 2.5 -0.1
v 0.2 6 -0.1
v 0.3 2.5 -0.1
v 0.3 6 -0.1
v 0.4 2.5 -0.1
v 0.4 6 -0.1
v 0.5 2.5 -0.1
v 0.5 6 -0.1
v 0.6 2.5 -0.1
v 0.6 6 -0.1
v 0.7 2.5 -0.1
v 0.7 6 -0.1
v 0.8 2.5 -0.1
v 0.8 6 -0.1
v 0.9 2.5 -0.1
v 0.9 6 -0.1
v 1 2.5 -0.1
v 1 6 -0.1
v 1.1 2.5 -0.1
v 1.1 6 -0.1
v 1.2 2.5 -0.1
v 1.2 6 -0.1
v 1.3 2.5 -0.1
v 1.3 6 -0.1
v 1.4 2.5 -0.1
v 1.4 6 -0.1
v 1.5 2.5 -0.1
v 1.5 6 -0.1
v 1.6 2.5 -0.1
v 1.6 6 -0.1
v 1.7 2.5 -0.1
v 1.7 6 -0.1
v 1.8 2.5 -0.1
v 1.8 6 -0.1
v 1.9 2.5 -0.1
v 1.9 6 -0.1
v 2 2.5 -0.1
v 2 6 -0.1
v 2.1 2.5 -0.1
v 2.1 6 -0.1
v 2.2 2.5 -0.1
v 2.2 6 -0.1
v 2.3 2.5 -0.1
v 2.3 6 -0.1
v 2.4 2.5 -0.1
v 2.4 6 -0.1
v 2.5 2.5 -0.1
v 2.5 6 -0.1
v 2.6 2.5 -0.1
v 2.6 6 -0.1
v 2.7 2.5 -0.1
v 2.7 6 -0.1
v 2.8 2.5 -0.1
v 2.8 6 -0.1
v 2.9 2.5 -0.1
v 2.9 6 -0.1
v 3 2.5 -0.1
v 3 6 -0.1
v 3.1 2.5 -0.1
v 3.1 6 -0.1
v 3.2 2.5 -0.1
v 3.2 6 -0.1
v 3.3 2.5 -0.1
v 3.3 6 -0.1
v 3.4 2.5 -0.1
v 3.4 6 -0.1
v 3.5 2.5 -0.1
v 3.5 6 -0.1
v 3.6 2.5 -0.1
v 3.6 6 -0.1
v 3.7 2.5 -0.1
v 3.7 6 -0.1
v 3.8 2.4 -0.1
v 3.8 2.5 -0.1
v 0.1 2.4 -3.9
v 0.1 2.5 -3.9
v 0.2 2.5 -3.9
v 0.2 6 -3.9
v 0.3 2.5 -3.9
v 0.3 6 -3.9
v 0.4 2.5 -3.9
v 0.4 6 -3.9
v 0.5 2.5 -3.9
v 0.5 6 -3.9
v 0.6 2.5 -3.9
v 0.6 6 -3.9
v 0.7 2.5 -3.9
v 0.7 6 -3.9
v 0.8 2.5 -3.9
v 0.8 6 -3.9
v 0.9 2.5 -3.9
v 0.9 6 -3.9
v 1 2.5 -3.9
v 1 6 -3.9
v 1.1 2.5 -3.9
v 1.1 6 -3.9
v 1.2 2.5 -3.9
v 1.2 6 -3.9
v 1.3 2.5 -3.9
v 1.3 6 -3.9
v 1.4 2.5 -3.9
v 1.4 6 -3.9
v 1.5 2.5 -3.9
v 1.5 6 -3.9
v 1.6 2.5 -3.9
v 1.6 6 -3.9
v 1.7 2.5 -3.9
v 1.7 6 -3.9
v 1.8 2.5 -3.9
v 1.8 6 -3.9
v 1.9 2.5 -3.9
v 1.9 6 -3.9
v 2 2.5 -3.9
v 2 6 -3.9
v 2.1 2.5 -3.9
v 2.1 6 -3.9
v 2.2 2.5 -3.9
v 2.2 6 -3.9
v 2.3 2.5 -3.9
v 2.3 6 -3.9
v 2.4 2.5 -3.9
v 2.4 6 -3.9
v 2.5 2.5 -3.9
v 2.5 6 -3.9
v 2.6 2.5 -3.9
v 2.6 6 -3.9
v 2.7 2.5 -3.9
v 2.7 6 -3.9
v 2.8 2.5 -3.9
v 2.8 6 -3.9
v 2.9 2.5 -3.9
v 2.9 6 -3.9
v 3 2.5 -3.9
v 3 6 -3.9
v 3.1 2.5 -3.9
v 3.1 6 -3.9
v 3.2 2.5 -3.9
v 3.2 6 -3.9
v 3.3 2.5 -3.9
v 3.3 6 -3.9
v 3.4 2.5 -3.9
v 3.4 6 -3.9
v 3.5 2.5 -3.9
v 3.5 6 -3.9
v 3.6 2.5 -3.9
v 3.6 6 -3.9
v 3.7 2.5 -3.9
v 3.7 6 -3.9
v 3.8 2.4 -3.9
v 3.8 2.5 -3.9
v 0 2 -4
v 0 2.1 -4
v 0 2.3 -4
v 0 2.4 -4
v 3.9 2 -4
v 3.9 2.1 -4
v 3.9 2.3 -4
v 3.9 2.4 -4
v 0 2 0
v 3.9 2 0
v 0 2 -4
v 3.9 2 -4
v 0 2.4 0
v 3.9 2.4 0
v 0.1 2.4 -0.1
v 3.8 2.4 -0.1
v 0.1 2.4 -3.9
v 3.8 2.4 -3.9
v 0 2.4 -4
v 3.9 2.4 -4
v 0.1 2.5 -0.1
v 0.2 2.5 -0.1
v 0.3 2.5 -0.1
v 0.4 2.5 -0.1
v 0.5 2.5 -0.1
v 0.6 2.5 -0.1
v 0.7 2.5 -0.1
v 0.8 2.5 -0.1
v 0.9 2.5 -0.1
v 1 2.5 -0.1
v 1.1 2.5 -0.1
v 1.2 2.5 -0.1
v 1.3 2.5 -0.1
v 1.4 2.5 -0.1
v 1.5 2.5 -0.1
v 1.6 2.5 -0.1
v 1.7 2.5 -0.1
v 1.8 2.5 -0.1
v 1.9 2.5 -0.1
v 2 2.5 -0.1
v 2.1 2.5 -0.1
v 2.2 2.5 -0.1
v 2.3 2.5 -0.1
v 2.4 2.5 -0.1
v 2.5 2.5 -0.1
v 2.6 2.5 -0.1
v 2.7 2.5 -0.1
v 2.8 2.5 -0.1
v 2.9 2.5 -0.1
v 3 2.5 -0.1
v 3.1 2.5 -0.1
v 3.2 2.5 -0.1
v 3.3 2.5 -0.1
v 3.4 2.5 -0.1
v 3.5 2.5 -0.1
v 3.6 2.5 -0.1
v 3.7 2.5 -0.1
v 3.8 2.5 -0.1
v 0.1 2.5 -3.9
v 0.2 2.5 -3.9
v 0.3 2.5 -3.9
v 0.4 2.5 -3.9
v 0.5 2.5 -3.9
v 0.6 2.5 -3.9
v 0.7 2.5 -3.9
v 0.8 2.5 -3.9
v 0.9 2.5 -3.9
v 1 2.5 -3.9
v 1.1 2.5 -3.9
v 1.2 2.5 -3.9
v 1.3 2.5 -3.9
v 1.4 2.5 -3.9
v 1.5 2.5 -3.9
v 1.6 2.5 -3.9
v 1.7 2.5 -3.9
v 1.8 2.5 -3.9
v 1.9 2.5 -3.9
v 2 2.5 -3.9
v 2.1 2.5 -3.9
v 2.2 2.5 -3.9
v 2.3 2.5 -3.9
v 2.4 2.5 -3.9
v 2.5 2.5 -3.9
v 2.6 2.5 -3.9
v 2.7 2.5 -3.9
v 2.8 2.5 -3.9
v 2.9 2.5 -3.9
v 3 2.5 -3.9
v 3.1 2.5 -3.9
v 3.2 2.5 -3.9
v 3.3 2.5 -3.9
v 3.4 2.5 -3.9
v 3.5 2.5 -3.9
v 3.6 2.5 -3.9
v 3.7 2.5 -3.9
v 3.8 2.5 -3.9
v 0.2 6 -0.1
v 0.3 6 -0.1
v 0.4 6 -0.1
v 0.5 6 -0.1
v 0.6 6 -0.1
v 0.7 6 -0.1
v 0.8 6 -0.1
v 0.9 6 -0.1
v 1 6 -0.1
v 1.1 6 -0.1
v 1.2 6 -0.1
v 1.3 6 -0.1
v 1.4 6 -0.1
v 1.5 6 -0.1
v 1.6 6 -0.1
v 1.7 6 -0.1
v 1.8 6 -0.1
v 1.9 6 -0.1
v 2 6 -0.1
v 2.1 6 -0.1
v 2.2 6 -0.1
v 2.3 6 -0.1
v 2.4 6 -0.1
v 2.5 6 -0.1
v 2.6 6 -0.1
v 2.7 6 -0.1
v 2.8 6 -0.1
v 2.9 6 -0.1
v 3 6 -0.1
v 3.1 6 -0.1
v 3.2 6 -0.1
v 3.3 6 -0.1
v 3.4 6 -0.1
v 3.5 6 -0.1
v 3.6 6 -0.1
v 3.7 6 -0.1
v 0.2 6 -3.9
v 0.3 6 -3.9
v 0.4 6 -3.9
v 0.5 6 -3.9
v 0.6 6 -3.9
v 0.7 6 -3.9
v 0.8 6 -3.9
v 0.9 6 -3.9
v 1 6 -3.9
v 1.1 6 -3.9
v 1.2 6 -3.9
v 1.3 6 -3.9
v 1.4 6 -3.9
v 1.5 6 -3.9
v 1.6 6 -3.9
v 1.7 6 -3.9
v 1.8 6 -3.9
v 1.9 6 -3.9
v 2 6 -3.9
v 2.1 6 -3.9
v 2.2 6 -3.9
v 2.3 6 -3.9
v 2.4 6 -3.9
v 2.5 6 -3.9
v 2.6 6 -3.9
v 2.7 6 -3.9
v 2.8 6 -3.9
v 2.9 6 -3.9
v 3 6 -3.9
v 3.1 6 -3.9
v 3.2 6 -3.9
v 3.3 6 -3.9
v 3.4 6 -3.9
v 3.5 6 -3.9
v 3.6 6 -3.9
v 3.7 6 -3.9

# faces
f 3/1/1 2/1/1 1/1/1
f 4/1/1 2/1/1 3/1/1
f 5/3/1 4/3/1 3/3/1
f 6/3/1 4/3/1 5/3/1
f 7/1/1 6/1/1 5/1/1
f 8/1/1 6/1/1 7/1/1
f 11/3/1 10/3/1 9/3/1
f 12/3/1 10/3/1 11/3/1
f 15/1/1 14/1/1 13/1/1
f 16/1/1 14/1/1 15/1/1
f 19/1/1 18/1/1 17/1/1
f 20/1/1 18/1/1 19/1/1
f 23/1/1 22/1/1 21/1/1
f 24/1/1 22/1/1 23/1/1
f 27/1/1 26/1/1 25/1/1
f 28/1/1 26/1/1 27/1/1
f 31/1/1 30/1/1 29/1/1
f 32/1/1 30/1/1 31/1/1
f 35/1/1 34/1/1 33/1/1
f 36/1/1 34/1/1 35/1/1
f 39/1/1 38/1/1 37/1/1
f 40/1/1 38/1/1 39/1/1
f 43/1/1 42/1/1 41/1/1
f 44/1/1 42/1/1 43/1/1
f 47/1/1 46/1/1 45/1/1
f 48/1/1 46/1/1 47/1/1
f 51/1/1 50/1/1 49/1/1
f 52/1/1 50/1/1 51/1/1
f 55/1/1 54/1/1 53/1/1
f 56/1/1 54/1/1 55/1/1
f 59/1/1 58/1/1 57/1/1
f 60/1/1 58/1/1 59/1/1
f 63/1/1 62/1/1 61/1/1
f 64/1/1 62/1/1 63/1/1
f 67/1/1 66/1/1 65/1/1
f 68/1/1 66/1/1 67/1/1
f 71/1/1 70/1/1 69/1/1
f 72/1/1 70/1/1 71/1/1
f 75/1/1 74/1/1 73/1/1
f 76/1/1 74/1/1 75/1/1
f 79/1/1 78/1/1 77/1/1
f 80/1/1 78/1/1 79/1/1
f 83/1/1 82/1/1 81/1/1
f 84/1/1 82/1/1 83/1/1
f 85/1/2 86/1/2 87/1/2
f 87/1/2 86/1/2 88/1/2
f 89/1/2 90/1/2 91/1/2
f 91/1/2 90/1/2 92/1/2
f 93/1/2 94/1/2 95/1/2
f 95/1/2 94/1/2 96/1/2
f 97/1/2 98/1/2 99/1/2
f 99/1/2 98/1/2 100/1/2
f 101/1/2 102/1/2 103/1/2
f 103/1/2 102/1/2 104/1/2
f 105/1/2 106/1/2 107/1/2
f 107/1/2 106/1/2 108/1/2
f 109/1/2 110/1/2 111/1/2
f 111/1/2 110/1/2 112/1/2
f 113/1/2 114/1/2 115/1/2
f 115/1/2 114/1/2 116/1/2
f 117/1/2 118/1/2 119/1/2
f 119/1/2 118/1/2 120/1/2
f 121/1/2 122/1/2 123/1/2
f 123/1/2 122/1/2 124/1/2
f 125/1/2 126/1/2 127/1/2
f 127/1/2 126/1/2 128/1/2
f 129/1/2 130/1/2 131/1/2
f 131/1/2 130/1/2 132/1/2
f 133/1/2 134/1/2 135/1/2
f 135/1/2 134/1/2 136/1/2
f 137/1/2 138/1/2 139/1/2
f 139/1/2 138/1/2 140/1/2
f 141/1/2 142/1/2 143/1/2
f 143/1/2 142/1/2 144/1/2
f 145/1/2 146/1/2 147/1/2
f 147/1/2 146/1/2 148/1/2
f 149/1/2 150/1/2 151/1/2
f 151/1/2 150/1/2 152/1/2
f 153/1/2 154/1/2 155/1/2
f 155/1/2 154/1/2 156/1/2
f 157/3/2 158/3/2 159/3/2
f 159/3/2 158/3/2 160/3/2
f 161/1/2 162/1/2 163/1/2
f 163/1/2 162/1/2 164/1/2
f 163/3/2 164/3/2 165/3/2
f 165/3/2 164/3/2 166/3/2
f 165/1/2 166/1/2 167/1/2
f 167/1/2 166/1/2 168/1/2
f 173/1/3 170/1/3 169/1/3
f 174/3/3 171/3/3 170/3/3
f 174/1/3 170/1/3 173/1/3
f 175/1/3 172/1/3 171/1/3
f 175/3/3 171/3/3 174/3/3
f 176/1/3 172/1/3 175/1/3
f 179/3/3 178/3/3 177/3/3
f 181/3/3 179/3/3 177/3/3
f 181/1/3 180/1/3 179/1/3
f 182/1/3 180/1/3 181/1/3
f 183/3/3 181/3/3 177/3/3
f 185/3/3 183/3/3 177/3/3
f 185/1/3 184/1/3 183/1/3
f 186/1/3 184/1/3 185/1/3
f 187/3/3 185/3/3 177/3/3
f 189/3/3 187/3/3 177/3/3
f 189/1/3 188/1/3 187/1/3
f 190/1/3 188/1/3 189/1/3
f 191/3/3 189/3/3 177/3/3
f 193/3/3 191/3/3 177/3/3
f 193/1/3 192/1/3 191/1/3
f 194/1/3 192/1/3 193/1/3
f 195/3/3 193/3/3 177/3/3
f 197/3/3 195/3/3 177/3/3
f 197/1/3 196/1/3 195/1/3
f 198/1/3 196/1/3 197/1/3
f 199/3/3 197/3/3 177/3/3
f 201/3/3 199/3/3 177/3/3
f 201/1/3 200/1/3 199/1/3
f 202/1/3 200/1/3 201/1/3
f 203/3/3 201/3/3 177/3/3
f 205/3/3 203/3/3 177/3/3
f 205/1/3 204/1/3 203/1/3
f 206/1/3 204/1/3 205/1/3
f 207/3/3 205/3/3 177/3/3
f 209/3/3 207/3/3 177/3/3
f 209/1/3 208/1/3 207/1/3
f 210/1/3 208/1/3 209/1/3
f 211/3/3 209/3/3 177/3/3
f 213/3/3 211/3/3 177/3/3
f 213/1/3 212/1/3 211/1/3
f 214/1/3 212/1/3 213/1/3
f 215/3/3 213/3/3 177/3/3
f 217/3/3 215/3/3 177/3/3
f 217/1/3 216/1/3 215/1/3
f 218/1/3 216/1/3 217/1/3
f 219/3/3 217/3/3 177/3/3
f 221/3/3 219/3/3 177/3/3
f 221/1/3 220/1/3 219/1/3
f 222/1/3 220/1/3 221/1/3
f 223/3/3 221/3/3 177/3/3
f 225/3/3 223/3/3 177/3/3
f 225/1/3 224/1/3 223/1/3
f 226/1/3 224/1/3 225/1/3
f 227/3/3 225/3/3 177/3/3
f 229/3/3 227/3/3 177/3/3
f 229/1/3 228/1/3 227/1/3
f 230/1/3 228/1/3 229/1/3
f 231/3/3 229/3/3 177/3/3
f 233/3/3 231/3/3 177/3/3
f 233/1/3 232/1/3 231/1/3
f 234/1/3 232/1/3 233/1/3
f 235/3/3 233/3/3 177/3/3
f 237/3/3 235/3/3 177/3/3
f 237/1/3 236/1/3 235/1/3
f 238/1/3 236/1/3 237/1/3
f 239/3/3 237/3/3 177/3/3
f 241/3/3 239/3/3 177/3/3
f 241/1/3 240/1/3 239/1/3
f 242/1/3 240/1/3 241/1/3
f 243/3/3 241/3/3 177/3/3
f 245/3/3 243/3/3 177/3/3
f 245/1/3 244/1/3 243/1/3
f 246/1/3 244/1/3 245/1/3
f 247/3/3 245/3/3 177/3/3
f 249/3/3 247/3/3 177/3/3
f 249/1/3 248/1/3 247/1/3
f 250/1/3 248/1/3 249/1/3
f 251/3/3 249/3/3 177/3/3
f 252/3/3 249/3/3 251/3/3
f 253/3/4 254/3/4 255/3/4
f 253/3/4 255/3/4 257/3/4
f 255/1/4 256/1/4 257/1/4
f 257/1/4 256/1/4 258/1/4
f 253/3/4 257/3/4 259/3/4
f 253/3/4 259/3/4 261/3/4
f 259/1/4 260/1/4 261/1/4
f 261/1/4 260/1/4 262/1/4
f 253/3/4 261/3/4 263/3/4
f 253/3/4 263/3/4 265/3/4
f 263/1/4 264/1/4 265/1/4
f 265/1/4 264/1/4 266/1/4
f 253/3/4 265/3/4 267/3/4
f 253/3/4 267/3/4 269/3/4
f 267/1/4 268/1/4 269/1/4
f 269/1/4 268/1/4 270/1/4
f 253/3/4 269/3/4 271/3/4
f 253/3/4 271/3/4 273/3/4
f 271/1/4 272/1/4 273/1/4
f 273/1/4 272/1/4 274/1/4
f 253/3/4 273/3/4 275/3/4
f 253/3/4 275/3/4 277/3/4
f 275/1/4 276/1/4 277/1/4
f 277/1/4 276/1/4 278/1/4
f 253/3/4 277/3/4 279/3/4
f 253/3/4 279/3/4 281/3/4
f 279/1/4 280/1/4 281/1/4
f 281/1/4 280/1/4 282/1/4
f 253/3/4 281/3/4 283/3/4
f 253/3/4 283/3/4 285/3/4
f 283/1/4 284/1/4 285/1/4
f 285/1/4 284/1/4 286/1/4
f 253/3/4 285/3/4 287/3/4
f 253/3/4 287/3/4 289/3/4
f 287/1/4 288/1/4 289/1/4
f 289/1/4 288/1/4 290/1/4
f 253/3/4 289/3/4 291/3/4
f 253/3/4 291/3/4 293/3/4
f 291/1/4 292/1/4 293/1/4
f 293/1/4 292/1/4 294/1/4
f 253/3/4 293/3/4 295/3/4
f 253/3/4 295/3/4 297/3/4
f 295/1/4 296/1/4 297/1/4
f 297/1/4 296/1/4 298/1/4
f 253/3/4 297/3/4 299/3/4
f 253/3/4 299/3/4 301/3/4
f 299/1/4 300/1/4 301/1/4
f 301/1/4 300/1/4 302/1/4
f 253/3/4 301/3/4 303/3/4
f 253/3/4 303/3/4 305/3/4
f 303/1/4 304/1/4 305/1/4
f 305/1/4 304/1/4 306/1/4
f 253/3/4 305/3/4 307/3/4
f 253/3/4 307/3/4 309/3/4
f 307/1/4 308/1/4 309/1/4
f 309/1/4 308/1/4 310/1/4
f 253/3/4 309/3/4 311/3/4
f 253/3/4 311/3/4 313/3/4
f 311/1/4 312/1/4 313/1/4
f 313/1/4 312/1/4 314/1/4
f 253/3/4 313/3/4 315/3/4
f 253/3/4 315/3/4 317/3/4
f 315/1/4 316/1/4 317/1/4
f 317/1/4 316/1/4 318/1/4
f 253/3/4 317/3/4 319/3/4
f 253/3/4 319/3/4 321/3/4
f 319/1/4 320/1/4 321/1/4
f 321/1/4 320/1/4 322/1/4
f 253/3/4 321/3/4 323/3/4
f 253/3/4 323/3/4 325/3/4
f 323/1/4 324/1/4 325/1/4
f 325/1/4 324/1/4 326/1/4
f 253/3/4 325/3/4 327/3/4
f 327/3/4 325/3/4 328/3/4
f 329/1/4 330/1/4 333/1/4
f 330/3/4 331/3/4 334/3/4
f 333/1/4 330/1/4 334/1/4
f 331/1/4 332/1/4 335/1/4
f 334/3/4 331/3/4 335/3/4
f 335/1/4 332/1/4 336/1/4
f 339/1/5 338/1/5 337/1/5
f 340/1/5 338/1/5 339/1/5
f 341/1/6 342/1/6 343/1/6
f 343/1/6 342/1/6 344/1/6
f 341/1/6 343/1/6 345/1/6
f 344/1/6 342/1/6 346/1/6
f 341/1/6 345/1/6 347/1/6
f 345/1/6 346/1/6 347/1/6
f 346/1/6 342/1/6 348/1/6
f 347/1/6 346/1/6 348/1/6
f 349/3/6 350/3/6 387/3/6
f 387/3/6 350/3/6 388/3/6
f 351/3/6 352/3/6 389/3/6
f 389/3/6 352/3/6 390/3/6
f 353/3/6 354/3/6 391/3/6
f 391/3/6 354/3/6 392/3/6
f 355/3/6 356/3/6 393/3/6
f 393/3/6 356/3/6 394/3/6
f 357/3/6 358/3/6 395/3/6
f 395/3/6 358/3/6 396/3/6
f 359/3/6 360/3/6 397/3/6
f 397/3/6 360/3/6 398/3/6
f 361/3/6 362/3/6 399/3/6
f 399/3/6 362/3/6 400/3/6
f 363/3/6 364/3/6 401/3/6
f 401/3/6 364/3/6 402/3/6
f 365/3/6 366/3/6 403/3/6
f 403/3/6 366/3/6 404/3/6
f 367/3/6 368/3/6 405/3/6
f 405/3/6 368/3/6 406/3/6
f 369/3/6 370/3/6 407/3/6
f 407/3/6 370/3/6 408/3/6
f 371/3/6 372/3/6 409/3/6
f 409/3/6 372/3/6 410/3/6
f 373/3/6 374/3/6 411/3/6
f 411/3/6 374/3/6 412/3/6
f 375/3/6 376/3/6 413/3/6
f 413/3/6 376/3/6 414/3/6
f 377/3/6 378/3/6 415/3/6
f 415/3/6 378/3/6 416/3/6
f 379/3/6 380/3/6 417/3/6
f 417/3/6 380/3/6 418/3/6
f 381/3/6 382/3/6 419/3/6
f 419/3/6 382/3/6 420/3/6
f 383/3/6 384/3/6 421/3/6
f 421/3/6 384/3/6 422/3/6
f 385/3/6 386/3/6 423/3/6
f 423/3/6 386/3/6 424/3/6
f 425/1/6 426/1/6 461/1/6
f 461/1/6 426/1/6 462/1/6
f 427/1/6 428/1/6 463/1/6
f 463/1/6 428/1/6 464/1/6
f 429/1/6 430/1/6 465/1/6
f 465/1/6 430/1/6 466/1/6
f 431/1/6 432/1/6 467/1/6
f 467/1/6 432/1/6 468/1/6
f 433/1/6 434/1/6 469/1/6
f 469/1/6 434/1/6 470/1/6
f 435/1/6 436/1/6 471/1/6
f 471/1/6 436/1/6 472/1/6
f 437/1/6 438/1/6 473/1/6
f 473/1/6 438/1/6 474/1/6
f 439/1/6 440/1/6 475/1/6
f 475/1/6 440/1/6 476/1/6
f 441/1/6 442/1/6 477/1/6
f 477/1/6 442/1/6 478/1/6
f 443/1/6 444/1/6 479/1/6
f 479/1/6 444/1/6 480/1/6
f 445/1/6 446/1/6 481/1/6
f 481/1/6 446/1/6 482/1/6
f 447/1/6 448/1/6 483/1/6
f 483/1/6 448/1/6 484/1/6
f 449/1/6 450/1/6 485/1/6
f 485/1/6 450/1/6 486/1/6
f 451/1/6 452/1/6 487/1/6
f 487/1/6 452/1/6 488/1/6
f 453/1/6 454/1/6 489/1/6
f 489/1/6 454/1/6 490/1/6
f 455/1/6 456/1/6 491/1/6
f 491/1/6 456/1/6 492/1/6
f 457/1/6 458/1/6 493/1/6
f 493/1/6 458/1/6 494/1/6
f 459/1/6 460/1/6 495/1/6
f 495/1/6 460/1/6 496/1/6
