# MagicaVoxel @ Ephtracy

# group
o 

# material
mtllib 21.mtl
usemtl palette

# normals
vn -1 0 0
vn 1 0 0
vn 0 0 1
vn 0 0 -1
vn 0 -1 0
vn 0 1 0

# texcoords
vt 0.306641 0.5
vt 0.974609 0.5
vt 0.982422 0.5

# verts
v 0.1 2 -0.8
v 0.1 2 -1
v 0.1 2 -2.2
v 0.1 2 -2.4
v 0.1 2.2 -0.8
v 0.1 2.2 -1
v 0.1 2.2 -2.2
v 0.1 2.2 -2.4
v 0.1 3.2 -0.8
v 0.1 3.2 -2.4
v 0.4 2 -0.8
v 0.4 2 -0.9
v 0.4 2 -1
v 0.4 2 -2.2
v 0.4 2 -2.3
v 0.4 2 -2.4
v 0.4 2.1 -2.2
v 0.4 2.1 -2.3
v 0.4 2.2 -0.8
v 0.4 2.2 -0.9
v 0.4 2.2 -1
v 0.4 2.2 -2.2
v 0.4 2.2 -2.3
v 0.4 2.2 -2.4
v 0.7 2 -0.8
v 0.7 2 -0.9
v 0.7 2 -1
v 0.7 2 -2.2
v 0.7 2 -2.3
v 0.7 2 -2.4
v 0.7 2.1 -0.9
v 0.7 2.1 -1
v 0.7 2.1 -2.2
v 0.7 2.1 -2.3
v 0.7 2.2 -0.8
v 0.7 2.2 -0.9
v 0.7 2.2 -1
v 0.7 2.2 -2.2
v 0.7 2.2 -2.3
v 0.7 2.2 -2.4
v 3.1 2 -0.8
v 3.1 2 -0.9
v 3.1 2 -1
v 3.1 2 -2.2
v 3.1 2 -2.4
v 3.1 2.1 -0.9
v 3.1 2.1 -1
v 3.1 2.1 -2.2
v 3.1 2.1 -2.3
v 3.1 2.2 -0.8
v 3.1 2.2 -0.9
v 3.1 2.2 -1
v 3.1 2.2 -2.2
v 3.1 2.2 -2.3
v 3.1 2.2 -2.4
v 3.4 2 -0.8
v 3.4 2 -1
v 3.4 2 -2.2
v 3.4 2 -2.4
v 3.4 2.1 -0.9
v 3.4 2.1 -1
v 3.4 2.1 -2.2
v 3.4 2.1 -2.3
v 3.4 2.2 -0.8
v 3.4 2.2 -0.9
v 3.4 2.2 -1
v 3.4 2.2 -2.2
v 3.4 2.2 -2.3
v 3.4 2.2 -2.4
v 3.7 2 -0.8
v 3.7 2 -1
v 3.7 2 -2.2
v 3.7 2 -2.4
v 3.7 2.1 -0.9
v 3.7 2.1 -1
v 3.7 2.1 -2.2
v 3.7 2.1 -2.3
v 3.7 2.2 -0.8
v 3.7 2.2 -0.9
v 3.7 2.2 -1
v 3.7 2.2 -2.2
v 3.7 2.2 -2.3
v 3.7 2.2 -2.4
v 0.3 2 -0.8
v 0.3 2 -0.9
v 0.3 2 -1
v 0.3 2 -2.2
v 0.3 2 -2.4
v 0.3 2.2 -0.8
v 0.3 2.2 -0.9
v 0.3 2.2 -1
v 0.3 2.2 -2.2
v 0.3 2.2 -2.4
v 0.6 2 -0.8
v 0.6 2 -1
v 0.6 2 -2.2
v 0.6 2 -2.4
v 0.6 2.1 -0.9
v 0.6 2.1 -1
v 0.6 2.2 -0.8
v 0.6 2.2 -0.9
v 0.6 2.2 -1
v 0.6 2.2 -2.2
v 0.6 2.2 -2.4
v 0.9 2 -0.8
v 0.9 2 -0.9
v 0.9 2 -1
v 0.9 2 -2.2
v 0.9 2 -2.3
v 0.9 2 -2.4
v 0.9 2.1 -0.9
v 0.9 2.1 -1
v 0.9 2.1 -2.2
v 0.9 2.1 -2.3
v 0.9 2.2 -0.8
v 0.9 2.2 -0.9
v 0.9 2.2 -1
v 0.9 2.2 -2.2
v 0.9 2.2 -2.3
v 0.9 2.2 -2.4
v 3.3 2 -0.8
v 3.3 2 -0.9
v 3.3 2 -1
v 3.3 2 -2.2
v 3.3 2 -2.3
v 3.3 2 -2.4
v 3.3 2.1 -0.9
v 3.3 2.1 -1
v 3.3 2.2 -0.8
v 3.3 2.2 -0.9
v 3.3 2.2 -1
v 3.3 2.2 -2.2
v 3.3 2.2 -2.3
v 3.3 2.2 -2.4
v 3.6 2 -0.8
v 3.6 2 -0.9
v 3.6 2 -1
v 3.6 2 -2.2
v 3.6 2 -2.3
v 3.6 2 -2.4
v 3.6 2.1 -0.9
v 3.6 2.1 -1
v 3.6 2.2 -0.8
v 3.6 2.2 -0.9
v 3.6 2.2 -1
v 3.6 2.2 -2.2
v 3.6 2.2 -2.3
v 3.6 2.2 -2.4
v 3.9 2 -0.8
v 3.9 2 -1
v 3.9 2 -2.2
v 3.9 2 -2.4
v 3.9 2.2 -0.8
v 3.9 2.2 -1
v 3.9 2.2 -2.2
v 3.9 2.2 -2.4
v 3.9 3.2 -0.8
v 3.9 3.2 -2.4
v 0.1 2 -0.8
v 0.1 2.2 -0.8
v 0.1 3.2 -0.8
v 0.3 2 -0.8
v 0.3 2.2 -0.8
v 0.4 2 -0.8
v 0.4 2.2 -0.8
v 0.6 2 -0.8
v 0.6 2.2 -0.8
v 0.7 2 -0.8
v 0.7 2.2 -0.8
v 0.9 2 -0.8
v 0.9 2.2 -0.8
v 3.1 2 -0.8
v 3.1 2.2 -0.8
v 3.3 2 -0.8
v 3.3 2.2 -0.8
v 3.4 2 -0.8
v 3.4 2.2 -0.8
v 3.6 2 -0.8
v 3.6 2.2 -0.8
v 3.7 2 -0.8
v 3.7 2.2 -0.8
v 3.9 2 -0.8
v 3.9 2.2 -0.8
v 3.9 3.2 -0.8
v 0.1 2 -2.2
v 0.1 2.2 -2.2
v 0.3 2 -2.2
v 0.3 2.2 -2.2
v 0.4 2 -2.2
v 0.4 2.1 -2.2
v 0.4 2.2 -2.2
v 0.5 2 -2.2
v 0.5 2.1 -2.2
v 0.5 2.2 -2.2
v 0.6 2 -2.2
v 0.6 2.2 -2.2
v 0.7 2 -2.2
v 0.7 2.1 -2.2
v 0.7 2.2 -2.2
v 0.9 2 -2.2
v 0.9 2.1 -2.2
v 0.9 2.2 -2.2
v 3.1 2 -2.2
v 3.1 2.1 -2.2
v 3.1 2.2 -2.2
v 3.2 2 -2.2
v 3.2 2.1 -2.2
v 3.3 2 -2.2
v 3.3 2.2 -2.2
v 3.4 2 -2.2
v 3.4 2.1 -2.2
v 3.4 2.2 -2.2
v 3.5 2 -2.2
v 3.5 2.1 -2.2
v 3.6 2 -2.2
v 3.6 2.2 -2.2
v 3.7 2 -2.2
v 3.7 2.1 -2.2
v 3.7 2.2 -2.2
v 3.8 2.1 -2.2
v 3.8 2.2 -2.2
v 3.9 2 -2.2
v 3.9 2.2 -2.2
v 0.1 2 -1
v 0.1 2.2 -1
v 0.2 2 -1
v 0.2 2.2 -1
v 0.3 2 -1
v 0.3 2.2 -1
v 0.4 2 -1
v 0.4 2.2 -1
v 0.5 2 -1
v 0.5 2.1 -1
v 0.6 2 -1
v 0.6 2.1 -1
v 0.6 2.2 -1
v 0.7 2 -1
v 0.7 2.1 -1
v 0.7 2.2 -1
v 0.9 2 -1
v 0.9 2.1 -1
v 0.9 2.2 -1
v 3.1 2 -1
v 3.1 2.1 -1
v 3.1 2.2 -1
v 3.3 2 -1
v 3.3 2.1 -1
v 3.3 2.2 -1
v 3.4 2 -1
v 3.4 2.1 -1
v 3.4 2.2 -1
v 3.5 2 -1
v 3.5 2.1 -1
v 3.6 2 -1
v 3.6 2.1 -1
v 3.6 2.2 -1
v 3.7 2 -1
v 3.7 2.1 -1
v 3.7 2.2 -1
v 3.8 2.1 -1
v 3.8 2.2 -1
v 3.9 2 -1
v 3.9 2.2 -1
v 0.1 2 -2.4
v 0.1 2.2 -2.4
v 0.1 3.2 -2.4
v 0.3 2 -2.4
v 0.3 2.2 -2.4
v 0.4 2 -2.4
v 0.4 2.2 -2.4
v 0.6 2 -2.4
v 0.6 2.2 -2.4
v 0.7 2 -2.4
v 0.7 2.2 -2.4
v 0.9 2 -2.4
v 0.9 2.2 -2.4
v 3.1 2 -2.4
v 3.1 2.2 -2.4
v 3.3 2 -2.4
v 3.3 2.2 -2.4
v 3.4 2 -2.4
v 3.4 2.2 -2.4
v 3.6 2 -2.4
v 3.6 2.2 -2.4
v 3.7 2 -2.4
v 3.7 2.2 -2.4
v 3.9 2 -2.4
v 3.9 2.2 -2.4
v 3.9 3.2 -2.4
v 0.1 2 -0.8
v 0.3 2 -0.8
v 0.4 2 -0.8
v 0.6 2 -0.8
v 0.7 2 -0.8
v 0.9 2 -0.8
v 3.1 2 -0.8
v 3.3 2 -0.8
v 3.4 2 -0.8
v 3.6 2 -0.8
v 3.7 2 -0.8
v 3.9 2 -0.8
v 0.2 2 -0.9
v 0.3 2 -0.9
v 0.4 2 -0.9
v 0.5 2 -0.9
v 0.7 2 -0.9
v 0.9 2 -0.9
v 3.1 2 -0.9
v 3.3 2 -0.9
v 3.5 2 -0.9
v 3.6 2 -0.9
v 0.1 2 -1
v 0.2 2 -1
v 0.3 2 -1
v 0.4 2 -1
v 0.5 2 -1
v 0.6 2 -1
v 0.7 2 -1
v 0.9 2 -1
v 3.1 2 -1
v 3.3 2 -1
v 3.4 2 -1
v 3.5 2 -1
v 3.6 2 -1
v 3.7 2 -1
v 3.9 2 -1
v 0.1 2 -2.2
v 0.3 2 -2.2
v 0.4 2 -2.2
v 0.5 2 -2.2
v 0.6 2 -2.2
v 0.7 2 -2.2
v 0.9 2 -2.2
v 3.1 2 -2.2
v 3.2 2 -2.2
v 3.3 2 -2.2
v 3.4 2 -2.2
v 3.5 2 -2.2
v 3.6 2 -2.2
v 3.7 2 -2.2
v 3.9 2 -2.2
v 0.4 2 -2.3
v 0.5 2 -2.3
v 0.7 2 -2.3
v 0.9 2 -2.3
v 3.2 2 -2.3
v 3.3 2 -2.3
v 3.5 2 -2.3
v 3.6 2 -2.3
v 0.1 2 -2.4
v 0.3 2 -2.4
v 0.4 2 -2.4
v 0.6 2 -2.4
v 0.7 2 -2.4
v 0.9 2 -2.4
v 3.1 2 -2.4
v 3.3 2 -2.4
v 3.4 2 -2.4
v 3.6 2 -2.4
v 3.7 2 -2.4
v 3.9 2 -2.4
v 0.3 2.2 -0.8
v 0.4 2.2 -0.8
v 0.6 2.2 -0.8
v 0.7 2.2 -0.8
v 0.9 2.2 -0.8
v 3.1 2.2 -0.8
v 3.3 2.2 -0.8
v 3.4 2.2 -0.8
v 3.6 2.2 -0.8
v 3.7 2.2 -0.8
v 0.3 2.2 -0.9
v 0.4 2.2 -0.9
v 0.6 2.2 -0.9
v 0.7 2.2 -0.9
v 0.9 2.2 -0.9
v 3.1 2.2 -0.9
v 3.3 2.2 -0.9
v 3.4 2.2 -0.9
v 3.6 2.2 -0.9
v 3.7 2.2 -0.9
v 0.1 2.2 -1
v 0.2 2.2 -1
v 0.3 2.2 -1
v 0.4 2.2 -1
v 0.6 2.2 -1
v 0.7 2.2 -1
v 0.9 2.2 -1
v 3.1 2.2 -1
v 3.3 2.2 -1
v 3.4 2.2 -1
v 3.6 2.2 -1
v 3.7 2.2 -1
v 3.8 2.2 -1
v 3.9 2.2 -1
v 0.1 2.2 -2.2
v 0.3 2.2 -2.2
v 0.4 2.2 -2.2
v 0.5 2.2 -2.2
v 0.6 2.2 -2.2
v 0.7 2.2 -2.2
v 0.9 2.2 -2.2
v 3.1 2.2 -2.2
v 3.3 2.2 -2.2
v 3.4 2.2 -2.2
v 3.6 2.2 -2.2
v 3.7 2.2 -2.2
v 3.8 2.2 -2.2
v 3.9 2.2 -2.2
v 0.4 2.2 -2.3
v 0.7 2.2 -2.3
v 0.9 2.2 -2.3
v 3.1 2.2 -2.3
v 3.3 2.2 -2.3
v 3.4 2.2 -2.3
v 3.6 2.2 -2.3
v 3.7 2.2 -2.3
v 0.3 2.2 -2.4
v 0.4 2.2 -2.4
v 0.6 2.2 -2.4
v 0.7 2.2 -2.4
v 0.9 2.2 -2.4
v 3.1 2.2 -2.4
v 3.3 2.2 -2.4
v 3.4 2.2 -2.4
v 3.6 2.2 -2.4
v 3.7 2.2 -2.4
v 0.1 3.2 -0.8
v 3.9 3.2 -0.8
v 0.1 3.2 -2.4
v 3.9 3.2 -2.4

# faces
f 5/2/1 2/2/1 1/2/1
f 6/2/1 2/2/1 5/2/1
f 7/2/1 4/2/1 3/2/1
f 8/2/1 4/2/1 7/2/1
f 9/3/1 6/3/1 5/3/1
f 9/3/1 7/3/1 6/3/1
f 9/3/1 8/3/1 7/3/1
f 10/3/1 8/3/1 9/3/1
f 17/3/1 15/3/1 14/3/1
f 18/2/1 16/2/1 15/2/1
f 18/3/1 15/3/1 17/3/1
f 19/2/1 12/2/1 11/2/1
f 20/3/1 13/3/1 12/3/1
f 20/2/1 12/2/1 19/2/1
f 21/3/1 13/3/1 20/3/1
f 22/1/1 18/1/1 17/1/1
f 23/2/1 16/2/1 18/2/1
f 23/1/1 18/1/1 22/1/1
f 24/2/1 16/2/1 23/2/1
f 31/2/1 26/2/1 25/2/1
f 31/3/1 27/3/1 26/3/1
f 32/3/1 27/3/1 31/3/1
f 33/3/1 29/3/1 28/3/1
f 34/2/1 30/2/1 29/2/1
f 34/3/1 29/3/1 33/3/1
f 35/2/1 31/2/1 25/2/1
f 36/1/1 32/1/1 31/1/1
f 36/2/1 31/2/1 35/2/1
f 37/1/1 32/1/1 36/1/1
f 38/1/1 34/1/1 33/1/1
f 39/2/1 30/2/1 34/2/1
f 39/1/1 34/1/1 38/1/1
f 40/2/1 30/2/1 39/2/1
f 46/2/1 42/2/1 41/2/1
f 46/3/1 43/3/1 42/3/1
f 47/3/1 43/3/1 46/3/1
f 48/2/1 45/2/1 44/2/1
f 49/2/1 45/2/1 48/2/1
f 50/2/1 46/2/1 41/2/1
f 51/1/1 47/1/1 46/1/1
f 51/2/1 46/2/1 50/2/1
f 52/1/1 47/1/1 51/1/1
f 53/1/1 49/1/1 48/1/1
f 54/2/1 45/2/1 49/2/1
f 54/1/1 49/1/1 53/1/1
f 55/2/1 45/2/1 54/2/1
f 60/2/1 57/2/1 56/2/1
f 61/2/1 57/2/1 60/2/1
f 62/2/1 59/2/1 58/2/1
f 63/2/1 59/2/1 62/2/1
f 64/2/1 60/2/1 56/2/1
f 65/1/1 61/1/1 60/1/1
f 65/2/1 60/2/1 64/2/1
f 66/1/1 61/1/1 65/1/1
f 67/1/1 63/1/1 62/1/1
f 68/2/1 59/2/1 63/2/1
f 68/1/1 63/1/1 67/1/1
f 69/2/1 59/2/1 68/2/1
f 74/2/1 71/2/1 70/2/1
f 75/2/1 71/2/1 74/2/1
f 76/2/1 73/2/1 72/2/1
f 77/2/1 73/2/1 76/2/1
f 78/2/1 74/2/1 70/2/1
f 79/1/1 75/1/1 74/1/1
f 79/2/1 74/2/1 78/2/1
f 80/1/1 75/1/1 79/1/1
f 81/3/1 77/3/1 76/3/1
f 82/2/1 73/2/1 77/2/1
f 82/3/1 77/3/1 81/3/1
f 83/2/1 73/2/1 82/2/1
f 84/2/2 85/2/2 89/2/2
f 85/3/2 86/3/2 90/3/2
f 89/2/2 85/2/2 90/2/2
f 90/3/2 86/3/2 91/3/2
f 87/2/2 88/2/2 92/2/2
f 92/2/2 88/2/2 93/2/2
f 94/2/2 95/2/2 98/2/2
f 98/2/2 95/2/2 99/2/2
f 94/2/2 98/2/2 100/2/2
f 98/3/2 99/3/2 101/3/2
f 100/2/2 98/2/2 101/2/2
f 101/3/2 99/3/2 102/3/2
f 96/2/2 97/2/2 103/2/2
f 103/2/2 97/2/2 104/2/2
f 105/2/2 106/2/2 111/2/2
f 106/3/2 107/3/2 111/3/2
f 111/3/2 107/3/2 112/3/2
f 108/3/2 109/3/2 113/3/2
f 109/2/2 110/2/2 114/2/2
f 113/3/2 109/3/2 114/3/2
f 105/2/2 111/2/2 115/2/2
f 111/1/2 112/1/2 116/1/2
f 115/2/2 111/2/2 116/2/2
f 116/1/2 112/1/2 117/1/2
f 113/1/2 114/1/2 118/1/2
f 114/2/2 110/2/2 119/2/2
f 118/1/2 114/1/2 119/1/2
f 119/2/2 110/2/2 120/2/2
f 121/2/2 122/2/2 127/2/2
f 122/3/2 123/3/2 127/3/2
f 127/3/2 123/3/2 128/3/2
f 121/2/2 127/2/2 129/2/2
f 127/1/2 128/1/2 130/1/2
f 129/2/2 127/2/2 130/2/2
f 130/1/2 128/1/2 131/1/2
f 124/1/2 125/1/2 132/1/2
f 125/2/2 126/2/2 133/2/2
f 132/1/2 125/1/2 133/1/2
f 133/2/2 126/2/2 134/2/2
f 135/2/2 136/2/2 141/2/2
f 136/3/2 137/3/2 141/3/2
f 141/3/2 137/3/2 142/3/2
f 135/2/2 141/2/2 143/2/2
f 141/1/2 142/1/2 144/1/2
f 143/2/2 141/2/2 144/2/2
f 144/1/2 142/1/2 145/1/2
f 138/1/2 139/1/2 146/1/2
f 139/2/2 140/2/2 147/2/2
f 146/1/2 139/1/2 147/1/2
f 147/2/2 140/2/2 148/2/2
f 149/2/2 150/2/2 153/2/2
f 153/2/2 150/2/2 154/2/2
f 151/2/2 152/2/2 155/2/2
f 155/2/2 152/2/2 156/2/2
f 153/3/2 154/3/2 157/3/2
f 154/3/2 155/3/2 157/3/2
f 155/3/2 156/3/2 157/3/2
f 157/3/2 156/3/2 158/3/2
f 162/2/3 160/2/3 159/2/3
f 163/3/3 161/3/3 160/3/3
f 163/2/3 160/2/3 162/2/3
f 165/3/3 161/3/3 163/3/3
f 166/2/3 165/2/3 164/2/3
f 167/3/3 161/3/3 165/3/3
f 167/2/3 165/2/3 166/2/3
f 169/3/3 161/3/3 167/3/3
f 170/2/3 169/2/3 168/2/3
f 171/3/3 161/3/3 169/3/3
f 171/2/3 169/2/3 170/2/3
f 173/3/3 161/3/3 171/3/3
f 174/2/3 173/2/3 172/2/3
f 175/3/3 161/3/3 173/3/3
f 175/2/3 173/2/3 174/2/3
f 177/3/3 161/3/3 175/3/3
f 178/2/3 177/2/3 176/2/3
f 179/3/3 161/3/3 177/3/3
f 179/2/3 177/2/3 178/2/3
f 181/3/3 161/3/3 179/3/3
f 182/2/3 181/2/3 180/2/3
f 183/3/3 161/3/3 181/3/3
f 183/2/3 181/2/3 182/2/3
f 184/3/3 161/3/3 183/3/3
f 187/2/3 186/2/3 185/2/3
f 188/2/3 186/2/3 187/2/3
f 192/3/3 190/3/3 189/3/3
f 193/1/3 191/1/3 190/1/3
f 193/3/3 190/3/3 192/3/3
f 194/1/3 191/1/3 193/1/3
f 195/2/3 193/2/3 192/2/3
f 195/2/3 194/2/3 193/2/3
f 196/2/3 194/2/3 195/2/3
f 200/3/3 198/3/3 197/3/3
f 201/1/3 199/1/3 198/1/3
f 201/3/3 198/3/3 200/3/3
f 202/1/3 199/1/3 201/1/3
f 206/2/3 204/2/3 203/2/3
f 207/1/3 205/1/3 204/1/3
f 207/2/3 204/2/3 206/2/3
f 208/1/3 207/1/3 206/1/3
f 209/1/3 205/1/3 207/1/3
f 209/1/3 207/1/3 208/1/3
f 213/2/3 211/2/3 210/2/3
f 214/1/3 212/1/3 211/1/3
f 214/2/3 211/2/3 213/2/3
f 215/1/3 214/1/3 213/1/3
f 216/1/3 212/1/3 214/1/3
f 216/1/3 214/1/3 215/1/3
f 220/2/3 218/2/3 217/2/3
f 220/3/3 219/3/3 218/3/3
f 221/3/3 219/3/3 220/3/3
f 222/2/3 220/2/3 217/2/3
f 222/2/3 221/2/3 220/2/3
f 223/2/3 221/2/3 222/2/3
f 224/2/4 225/2/4 226/2/4
f 226/2/4 225/2/4 227/2/4
f 226/3/4 227/3/4 228/3/4
f 228/3/4 227/3/4 229/3/4
f 230/3/4 231/3/4 232/3/4
f 232/3/4 231/3/4 233/3/4
f 232/2/4 233/2/4 234/2/4
f 233/3/4 231/3/4 235/3/4
f 234/2/4 233/2/4 235/2/4
f 235/3/4 231/3/4 236/3/4
f 237/3/4 238/3/4 240/3/4
f 238/1/4 239/1/4 241/1/4
f 240/3/4 238/3/4 241/3/4
f 241/1/4 239/1/4 242/1/4
f 243/3/4 244/3/4 246/3/4
f 244/1/4 245/1/4 247/1/4
f 246/3/4 244/3/4 247/3/4
f 247/1/4 245/1/4 248/1/4
f 249/2/4 250/2/4 252/2/4
f 250/1/4 251/1/4 253/1/4
f 252/2/4 250/2/4 253/2/4
f 252/3/4 253/3/4 254/3/4
f 253/1/4 251/1/4 255/1/4
f 254/3/4 253/3/4 255/3/4
f 255/1/4 251/1/4 256/1/4
f 257/2/4 258/2/4 260/2/4
f 258/1/4 259/1/4 260/1/4
f 260/1/4 259/1/4 261/1/4
f 257/2/4 260/2/4 262/2/4
f 260/2/4 261/2/4 262/2/4
f 262/2/4 261/2/4 263/2/4
f 264/2/4 265/2/4 267/2/4
f 265/3/4 266/3/4 268/3/4
f 267/2/4 265/2/4 268/2/4
f 268/3/4 266/3/4 270/3/4
f 269/2/4 270/2/4 271/2/4
f 270/3/4 266/3/4 272/3/4
f 271/2/4 270/2/4 272/2/4
f 272/3/4 266/3/4 274/3/4
f 273/2/4 274/2/4 275/2/4
f 274/3/4 266/3/4 276/3/4
f 275/2/4 274/2/4 276/2/4
f 276/3/4 266/3/4 278/3/4
f 277/2/4 278/2/4 279/2/4
f 278/3/4 266/3/4 280/3/4
f 279/2/4 278/2/4 280/2/4
f 280/3/4 266/3/4 282/3/4
f 281/2/4 282/2/4 283/2/4
f 282/3/4 266/3/4 284/3/4
f 283/2/4 282/2/4 284/2/4
f 284/3/4 266/3/4 286/3/4
f 285/2/4 286/2/4 287/2/4
f 286/3/4 266/3/4 288/3/4
f 287/2/4 286/2/4 288/2/4
f 288/3/4 266/3/4 289/3/4
f 302/2/5 291/2/5 290/2/5
f 303/2/5 291/2/5 302/2/5
f 304/2/5 293/2/5 292/2/5
f 305/2/5 293/2/5 304/2/5
f 306/2/5 295/2/5 294/2/5
f 307/2/5 295/2/5 306/2/5
f 308/2/5 297/2/5 296/2/5
f 309/2/5 297/2/5 308/2/5
f 310/2/5 299/2/5 298/2/5
f 311/2/5 299/2/5 310/2/5
f 312/2/5 302/2/5 290/2/5
f 313/3/5 303/3/5 302/3/5
f 313/2/5 302/2/5 312/2/5
f 314/3/5 303/3/5 313/3/5
f 315/3/5 305/3/5 304/3/5
f 316/2/5 293/2/5 305/2/5
f 316/3/5 305/3/5 315/3/5
f 317/2/5 293/2/5 316/2/5
f 318/3/5 307/3/5 306/3/5
f 319/3/5 307/3/5 318/3/5
f 320/3/5 309/3/5 308/3/5
f 321/3/5 309/3/5 320/3/5
f 322/2/5 310/2/5 298/2/5
f 323/3/5 311/3/5 310/3/5
f 323/2/5 310/2/5 322/2/5
f 324/3/5 311/3/5 323/3/5
f 325/2/5 301/2/5 300/2/5
f 326/2/5 301/2/5 325/2/5
f 342/3/5 330/3/5 329/3/5
f 343/2/5 331/2/5 330/2/5
f 343/3/5 330/3/5 342/3/5
f 344/3/5 333/3/5 332/3/5
f 345/3/5 333/3/5 344/3/5
f 346/2/5 335/2/5 334/2/5
f 346/1/5 336/1/5 335/1/5
f 347/1/5 336/1/5 346/1/5
f 348/2/5 338/2/5 337/2/5
f 348/1/5 339/1/5 338/1/5
f 349/1/5 339/1/5 348/1/5
f 350/2/5 328/2/5 327/2/5
f 351/2/5 328/2/5 350/2/5
f 352/2/5 343/2/5 342/2/5
f 353/2/5 331/2/5 343/2/5
f 353/2/5 343/2/5 352/2/5
f 354/2/5 345/2/5 344/2/5
f 355/2/5 345/2/5 354/2/5
f 356/2/5 347/2/5 346/2/5
f 356/2/5 346/2/5 334/2/5
f 357/2/5 347/2/5 356/2/5
f 358/2/5 348/2/5 337/2/5
f 358/2/5 349/2/5 348/2/5
f 359/2/5 349/2/5 358/2/5
f 360/2/5 341/2/5 340/2/5
f 361/2/5 341/2/5 360/2/5
f 372/3/5 363/3/5 362/3/5
f 373/3/5 363/3/5 372/3/5
f 374/3/5 365/3/5 364/3/5
f 375/3/5 365/3/5 374/3/5
f 376/3/5 367/3/5 366/3/5
f 377/3/5 367/3/5 376/3/5
f 378/3/5 369/3/5 368/3/5
f 379/3/5 369/3/5 378/3/5
f 380/3/5 371/3/5 370/3/5
f 381/3/5 371/3/5 380/3/5
f 384/3/5 373/3/5 372/3/5
f 385/3/5 373/3/5 384/3/5
f 386/3/5 375/3/5 374/3/5
f 387/3/5 375/3/5 386/3/5
f 388/3/5 377/3/5 376/3/5
f 389/3/5 377/3/5 388/3/5
f 390/3/5 379/3/5 378/3/5
f 391/3/5 379/3/5 390/3/5
f 392/3/5 381/3/5 380/3/5
f 393/3/5 381/3/5 392/3/5
f 396/3/5 389/3/5 388/3/5
f 396/3/5 395/3/5 394/3/5
f 396/3/5 394/3/5 393/3/5
f 396/3/5 392/3/5 391/3/5
f 396/3/5 383/3/5 382/3/5
f 396/3/5 390/3/5 389/3/5
f 396/3/5 385/3/5 384/3/5
f 396/3/5 388/3/5 387/3/5
f 396/3/5 387/3/5 386/3/5
f 396/3/5 386/3/5 385/3/5
f 396/3/5 391/3/5 390/3/5
f 396/3/5 384/3/5 383/3/5
f 396/3/5 393/3/5 392/3/5
f 397/3/5 395/3/5 396/3/5
f 398/3/5 395/3/5 397/3/5
f 399/3/5 395/3/5 398/3/5
f 400/3/5 395/3/5 399/3/5
f 401/3/5 395/3/5 400/3/5
f 402/3/5 395/3/5 401/3/5
f 403/3/5 395/3/5 402/3/5
f 404/3/5 395/3/5 403/3/5
f 405/3/5 395/3/5 404/3/5
f 406/3/5 395/3/5 405/3/5
f 407/3/5 395/3/5 406/3/5
f 408/3/5 395/3/5 407/3/5
f 409/3/5 395/3/5 408/3/5
f 410/3/5 398/3/5 397/3/5
f 411/3/5 401/3/5 400/3/5
f 412/3/5 403/3/5 402/3/5
f 413/3/5 403/3/5 412/3/5
f 414/3/5 405/3/5 404/3/5
f 415/3/5 405/3/5 414/3/5
f 416/3/5 407/3/5 406/3/5
f 417/3/5 407/3/5 416/3/5
f 418/3/5 410/3/5 397/3/5
f 419/3/5 410/3/5 418/3/5
f 420/3/5 411/3/5 400/3/5
f 421/3/5 411/3/5 420/3/5
f 422/3/5 413/3/5 412/3/5
f 423/3/5 413/3/5 422/3/5
f 424/3/5 415/3/5 414/3/5
f 425/3/5 415/3/5 424/3/5
f 426/3/5 417/3/5 416/3/5
f 427/3/5 417/3/5 426/3/5
f 428/3/6 429/3/6 430/3/6
f 430/3/6 429/3/6 431/3/6
