# MagicaVoxel @ Ephtracy

# group
o 

# material
mtllib 23.mtl
usemtl palette

# normals
vn -1 0 0
vn 1 0 0
vn 0 0 1
vn 0 0 -1
vn 0 -1 0
vn 0 1 0

# texcoords
vt 0.306641 0.5
vt 0.966797 0.5
vt 0.982422 0.5

# verts
v 1.3 2.3 -0.9
v 1.3 2.3 -1
v 1.3 2.3 -2.2
v 1.3 2.3 -2.3
v 1.3 2.4 -0.9
v 1.3 2.4 -1
v 1.3 2.4 -2.2
v 1.3 2.4 -2.3
v 1.6 2.4 -1.1
v 1.6 2.4 -2.1
v 1.6 2.5 -1.1
v 1.6 2.5 -2.1
v 2.6 2.4 -1.1
v 2.6 2.4 -2.1
v 2.6 2.5 -1.1
v 2.6 2.5 -2.1
v 3 2.3 -0.9
v 3 2.3 -2.3
v 3 2.4 -0.9
v 3 2.4 -2.3
v 1.3 2.3 -0.9
v 1.3 2.4 -0.9
v 1.6 2.3 -0.9
v 1.6 2.4 -0.9
v 1.7 2.3 -0.9
v 1.7 2.4 -0.9
v 2.3 2.3 -0.9
v 2.3 2.4 -0.9
v 2.4 2.3 -0.9
v 2.4 2.4 -0.9
v 3 2.3 -0.9
v 3 2.4 -0.9
v 1.6 2.4 -1.1
v 1.6 2.5 -1.1
v 2.6 2.4 -1.1
v 2.6 2.5 -1.1
v 1.6 2.4 -2.1
v 1.6 2.5 -2.1
v 2.6 2.4 -2.1
v 2.6 2.5 -2.1
v 1.3 2.3 -2.3
v 1.3 2.4 -2.3
v 1.7 2.3 -2.3
v 1.7 2.4 -2.3
v 1.8 2.3 -2.3
v 1.8 2.4 -2.3
v 2.3 2.3 -2.3
v 2.3 2.4 -2.3
v 2.4 2.3 -2.3
v 2.4 2.4 -2.3
v 2.7 2.3 -2.3
v 2.7 2.4 -2.3
v 2.8 2.3 -2.3
v 2.8 2.4 -2.3
v 3 2.3 -2.3
v 3 2.4 -2.3
v 1.3 2.3 -0.9
v 1.6 2.3 -0.9
v 1.7 2.3 -0.9
v 2.3 2.3 -0.9
v 2.4 2.3 -0.9
v 3 2.3 -0.9
v 1.3 2.3 -1
v 1.6 2.3 -1
v 1.7 2.3 -1
v 2.3 2.3 -1
v 2.4 2.3 -1
v 2.9 2.3 -1
v 1.3 2.3 -2.2
v 1.7 2.3 -2.2
v 1.8 2.3 -2.2
v 2.3 2.3 -2.2
v 2.4 2.3 -2.2
v 2.7 2.3 -2.2
v 2.8 2.3 -2.2
v 2.9 2.3 -2.2
v 1.3 2.3 -2.3
v 1.7 2.3 -2.3
v 1.8 2.3 -2.3
v 2.3 2.3 -2.3
v 2.4 2.3 -2.3
v 2.7 2.3 -2.3
v 2.8 2.3 -2.3
v 3 2.3 -2.3
v 1.3 2.4 -0.9
v 1.6 2.4 -0.9
v 1.7 2.4 -0.9
v 2.3 2.4 -0.9
v 2.4 2.4 -0.9
v 3 2.4 -0.9
v 1.3 2.4 -1
v 1.6 2.4 -1
v 1.7 2.4 -1
v 2.3 2.4 -1
v 2.4 2.4 -1
v 2.9 2.4 -1
v 1.6 2.4 -1.1
v 2.6 2.4 -1.1
v 1.6 2.4 -2.1
v 2.6 2.4 -2.1
v 1.3 2.4 -2.2
v 1.7 2.4 -2.2
v 1.8 2.4 -2.2
v 2.3 2.4 -2.2
v 2.4 2.4 -2.2
v 2.7 2.4 -2.2
v 2.8 2.4 -2.2
v 2.9 2.4 -2.2
v 1.3 2.4 -2.3
v 1.7 2.4 -2.3
v 1.8 2.4 -2.3
v 2.3 2.4 -2.3
v 2.4 2.4 -2.3
v 2.7 2.4 -2.3
v 2.8 2.4 -2.3
v 3 2.4 -2.3
v 1.6 2.5 -1.1
v 2.6 2.5 -1.1
v 1.6 2.5 -2.1
v 2.6 2.5 -2.1

# faces
f 5/3/1 2/3/1 1/3/1
f 6/1/1 3/1/1 2/1/1
f 6/3/1 2/3/1 5/3/1
f 7/3/1 4/3/1 3/3/1
f 7/1/1 3/1/1 6/1/1
f 8/3/1 4/3/1 7/3/1
f 11/3/1 10/3/1 9/3/1
f 12/3/1 10/3/1 11/3/1
f 13/3/2 14/3/2 15/3/2
f 15/3/2 14/3/2 16/3/2
f 17/3/2 18/3/2 19/3/2
f 19/3/2 18/3/2 20/3/2
f 23/3/3 22/3/3 21/3/3
f 24/3/3 22/3/3 23/3/3
f 25/2/3 24/2/3 23/2/3
f 26/2/3 24/2/3 25/2/3
f 27/3/3 26/3/3 25/3/3
f 28/3/3 26/3/3 27/3/3
f 29/2/3 28/2/3 27/2/3
f 30/2/3 28/2/3 29/2/3
f 31/3/3 30/3/3 29/3/3
f 32/3/3 30/3/3 31/3/3
f 35/3/3 34/3/3 33/3/3
f 36/3/3 34/3/3 35/3/3
f 37/3/4 38/3/4 39/3/4
f 39/3/4 38/3/4 40/3/4
f 41/3/4 42/3/4 43/3/4
f 43/3/4 42/3/4 44/3/4
f 43/2/4 44/2/4 45/2/4
f 45/2/4 44/2/4 46/2/4
f 45/3/4 46/3/4 47/3/4
f 47/3/4 46/3/4 48/3/4
f 47/2/4 48/2/4 49/2/4
f 49/2/4 48/2/4 50/2/4
f 49/3/4 50/3/4 51/3/4
f 51/3/4 50/3/4 52/3/4
f 51/2/4 52/2/4 53/2/4
f 53/2/4 52/2/4 54/2/4
f 53/3/4 54/3/4 55/3/4
f 55/3/4 54/3/4 56/3/4
f 63/3/5 58/3/5 57/3/5
f 64/2/5 59/2/5 58/2/5
f 64/3/5 58/3/5 63/3/5
f 65/3/5 60/3/5 59/3/5
f 65/2/5 59/2/5 64/2/5
f 66/2/5 61/2/5 60/2/5
f 66/3/5 60/3/5 65/3/5
f 67/3/5 62/3/5 61/3/5
f 67/2/5 61/2/5 66/2/5
f 68/3/5 62/3/5 67/3/5
f 69/1/5 66/1/5 65/1/5
f 69/1/5 64/1/5 63/1/5
f 69/1/5 68/1/5 67/1/5
f 69/1/5 67/1/5 66/1/5
f 69/1/5 65/1/5 64/1/5
f 70/1/5 68/1/5 69/1/5
f 71/1/5 68/1/5 70/1/5
f 72/1/5 68/1/5 71/1/5
f 73/1/5 68/1/5 72/1/5
f 74/1/5 68/1/5 73/1/5
f 75/1/5 68/1/5 74/1/5
f 76/3/5 62/3/5 68/3/5
f 76/1/5 68/1/5 75/1/5
f 77/3/5 70/3/5 69/3/5
f 78/2/5 71/2/5 70/2/5
f 78/3/5 70/3/5 77/3/5
f 79/3/5 72/3/5 71/3/5
f 79/2/5 71/2/5 78/2/5
f 80/2/5 73/2/5 72/2/5
f 80/3/5 72/3/5 79/3/5
f 81/3/5 74/3/5 73/3/5
f 81/2/5 73/2/5 80/2/5
f 82/2/5 75/2/5 74/2/5
f 82/3/5 74/3/5 81/3/5
f 83/3/5 76/3/5 75/3/5
f 83/2/5 75/2/5 82/2/5
f 84/3/5 62/3/5 76/3/5
f 84/3/5 76/3/5 83/3/5
f 85/3/6 86/3/6 91/3/6
f 86/2/6 87/2/6 92/2/6
f 91/3/6 86/3/6 92/3/6
f 87/3/6 88/3/6 93/3/6
f 92/2/6 87/2/6 93/2/6
f 88/2/6 89/2/6 94/2/6
f 93/3/6 88/3/6 94/3/6
f 89/3/6 90/3/6 95/3/6
f 94/2/6 89/2/6 95/2/6
f 95/3/6 90/3/6 96/3/6
f 93/1/6 94/1/6 97/1/6
f 91/1/6 92/1/6 97/1/6
f 95/1/6 96/1/6 97/1/6
f 94/1/6 95/1/6 97/1/6
f 92/1/6 93/1/6 97/1/6
f 97/1/6 96/1/6 98/1/6
f 91/1/6 97/1/6 99/1/6
f 98/1/6 96/1/6 100/1/6
f 91/1/6 99/1/6 101/1/6
f 99/1/6 100/1/6 101/1/6
f 101/1/6 100/1/6 102/1/6
f 102/1/6 100/1/6 103/1/6
f 103/1/6 100/1/6 104/1/6
f 104/1/6 100/1/6 105/1/6
f 100/1/6 96/1/6 106/1/6
f 105/1/6 100/1/6 106/1/6
f 106/1/6 96/1/6 107/1/6
f 96/3/6 90/3/6 108/3/6
f 107/1/6 96/1/6 108/1/6
f 101/3/6 102/3/6 109/3/6
f 102/2/6 103/2/6 110/2/6
f 109/3/6 102/3/6 110/3/6
f 103/3/6 104/3/6 111/3/6
f 110/2/6 103/2/6 111/2/6
f 104/2/6 105/2/6 112/2/6
f 111/3/6 104/3/6 112/3/6
f 105/3/6 106/3/6 113/3/6
f 112/2/6 105/2/6 113/2/6
f 106/2/6 107/2/6 114/2/6
f 113/3/6 106/3/6 114/3/6
f 107/3/6 108/3/6 115/3/6
f 114/2/6 107/2/6 115/2/6
f 108/3/6 90/3/6 116/3/6
f 115/3/6 108/3/6 116/3/6
f 117/3/6 118/3/6 119/3/6
f 119/3/6 118/3/6 120/3/6
