# MagicaVoxel @ Ephtracy

# group
o 

# material
mtllib rez2.mtl
usemtl palette

# normals
vn -1 0 0
vn 1 0 0
vn 0 0 1
vn 0 0 -1
vn 0 -1 0
vn 0 1 0

# texcoords
vt 0.0644531 0.5
vt 0.138672 0.5
vt 0.142578 0.5
vt 0.177734 0.5
vt 0.306641 0.5
vt 0.771484 0.5
vt 0.978516 0.5

# verts
v 1.7 2.3 -1.2
v 1.7 2.3 -1.6
v 1.7 2.3 -1.7
v 1.7 2.3 -1.9
v 1.7 2.3 -2.1
v 1.7 2.3 -2.2
v 1.7 2.3 -2.4
v 1.7 2.3 -2.6
v 1.7 2.3 -2.8
v 1.7 2.8 -1.2
v 1.7 2.8 -1.6
v 1.7 2.8 -1.7
v 1.7 2.8 -1.9
v 1.7 2.8 -2.1
v 1.7 2.8 -2.2
v 1.7 2.8 -2.4
v 1.7 2.8 -2.6
v 1.7 2.8 -2.8
v 2 2 -1
v 2 2 -1.1
v 2 2 -2.9
v 2 2 -3
v 2 2.4 -1.1
v 2 2.4 -1.2
v 2 2.4 -2.8
v 2 2.4 -2.9
v 2 2.6 -1
v 2 2.6 -1.2
v 2 2.6 -2.8
v 2 2.6 -3
v 2.2 2 -1
v 2.2 2 -1.1
v 2.2 2 -2.9
v 2.2 2 -3
v 2.2 2.4 -1.1
v 2.2 2.4 -1.2
v 2.2 2.4 -2.8
v 2.2 2.4 -2.9
v 2.2 2.6 -1
v 2.2 2.6 -1.2
v 2.2 2.6 -2.8
v 2.2 2.6 -3
v 2.5 2.3 -1.2
v 2.5 2.3 -1.6
v 2.5 2.3 -1.7
v 2.5 2.3 -1.9
v 2.5 2.3 -2.1
v 2.5 2.3 -2.2
v 2.5 2.3 -2.4
v 2.5 2.3 -2.6
v 2.5 2.3 -2.8
v 2.5 2.8 -1.2
v 2.5 2.8 -1.6
v 2.5 2.8 -1.7
v 2.5 2.8 -1.9
v 2.5 2.8 -2.1
v 2.5 2.8 -2.2
v 2.5 2.8 -2.4
v 2.5 2.8 -2.6
v 2.5 2.8 -2.8
v 2 2 -1
v 2 2.6 -1
v 2.2 2 -1
v 2.2 2.6 -1
v 1.7 2.3 -1.2
v 1.7 2.8 -1.2
v 2 2.4 -1.2
v 2 2.6 -1.2
v 2.2 2.4 -1.2
v 2.2 2.6 -1.2
v 2.5 2.3 -1.2
v 2.5 2.8 -1.2
v 2 2 -2.9
v 2 2.4 -2.9
v 2.2 2 -2.9
v 2.2 2.4 -2.9
v 2 2 -1.1
v 2 2.4 -1.1
v 2.2 2 -1.1
v 2.2 2.4 -1.1
v 1.7 2.3 -2.8
v 1.7 2.8 -2.8
v 2 2.4 -2.8
v 2 2.6 -2.8
v 2.2 2.4 -2.8
v 2.2 2.6 -2.8
v 2.5 2.3 -2.8
v 2.5 2.8 -2.8
v 2 2 -3
v 2 2.6 -3
v 2.2 2 -3
v 2.2 2.6 -3
v 2 2 -1
v 2.2 2 -1
v 2 2 -1.1
v 2.2 2 -1.1
v 2 2 -2.9
v 2.2 2 -2.9
v 2 2 -3
v 2.2 2 -3
v 1.7 2.3 -1.2
v 2.5 2.3 -1.2
v 1.7 2.3 -1.6
v 1.8 2.3 -1.6
v 2.4 2.3 -1.6
v 2.5 2.3 -1.6
v 1.7 2.3 -1.7
v 1.8 2.3 -1.7
v 2.4 2.3 -1.7
v 2.5 2.3 -1.7
v 1.7 2.3 -1.9
v 1.8 2.3 -1.9
v 2.4 2.3 -1.9
v 2.5 2.3 -1.9
v 1.7 2.3 -2.1
v 1.8 2.3 -2.1
v 2.1 2.3 -2.1
v 2.5 2.3 -2.1
v 1.7 2.3 -2.2
v 1.8 2.3 -2.2
v 2.1 2.3 -2.2
v 2.5 2.3 -2.2
v 1.8 2.3 -2.3
v 2.4 2.3 -2.3
v 1.7 2.3 -2.4
v 1.8 2.3 -2.4
v 2.4 2.3 -2.4
v 2.5 2.3 -2.4
v 1.7 2.3 -2.6
v 1.8 2.3 -2.6
v 2.4 2.3 -2.6
v 2.5 2.3 -2.6
v 1.7 2.3 -2.8
v 2.5 2.3 -2.8
v 2 2.4 -1.1
v 2.2 2.4 -1.1
v 2 2.4 -1.2
v 2.2 2.4 -1.2
v 2 2.4 -2.8
v 2.2 2.4 -2.8
v 2 2.4 -2.9
v 2.2 2.4 -2.9
v 2 2.6 -1
v 2.2 2.6 -1
v 2 2.6 -1.2
v 2.2 2.6 -1.2
v 2 2.6 -2.8
v 2.2 2.6 -2.8
v 2 2.6 -3
v 2.2 2.6 -3
v 1.7 2.8 -1.2
v 2.5 2.8 -1.2
v 1.7 2.8 -1.6
v 2.5 2.8 -1.6
v 1.7 2.8 -1.7
v 2.5 2.8 -1.7
v 1.7 2.8 -1.9
v 2.5 2.8 -1.9
v 1.7 2.8 -2.1
v 2.5 2.8 -2.1
v 1.7 2.8 -2.2
v 2.5 2.8 -2.2
v 1.7 2.8 -2.4
v 2.5 2.8 -2.4
v 1.7 2.8 -2.6
v 2.5 2.8 -2.6
v 1.7 2.8 -2.8
v 2.5 2.8 -2.8

# faces
f 10/6/1 2/6/1 1/6/1
f 11/4/1 3/4/1 2/4/1
f 11/6/1 2/6/1 10/6/1
f 12/1/1 4/1/1 3/1/1
f 12/4/1 3/4/1 11/4/1
f 13/6/1 5/6/1 4/6/1
f 13/1/1 4/1/1 12/1/1
f 14/3/1 6/3/1 5/3/1
f 14/6/1 5/6/1 13/6/1
f 15/6/1 7/6/1 6/6/1
f 15/3/1 6/3/1 14/3/1
f 16/2/1 8/2/1 7/2/1
f 16/6/1 7/6/1 15/6/1
f 17/6/1 9/6/1 8/6/1
f 17/2/1 8/2/1 16/2/1
f 18/6/1 9/6/1 17/6/1
f 23/7/1 20/7/1 19/7/1
f 26/7/1 22/7/1 21/7/1
f 27/7/1 24/7/1 23/7/1
f 27/7/1 23/7/1 19/7/1
f 28/7/1 24/7/1 27/7/1
f 29/7/1 26/7/1 25/7/1
f 30/7/1 22/7/1 26/7/1
f 30/7/1 26/7/1 29/7/1
f 31/7/2 32/7/2 35/7/2
f 33/7/2 34/7/2 38/7/2
f 35/7/2 36/7/2 39/7/2
f 31/7/2 35/7/2 39/7/2
f 39/7/2 36/7/2 40/7/2
f 37/7/2 38/7/2 41/7/2
f 38/7/2 34/7/2 42/7/2
f 41/7/2 38/7/2 42/7/2
f 43/6/2 44/6/2 52/6/2
f 44/4/2 45/4/2 53/4/2
f 52/6/2 44/6/2 53/6/2
f 45/1/2 46/1/2 54/1/2
f 53/4/2 45/4/2 54/4/2
f 46/6/2 47/6/2 55/6/2
f 54/1/2 46/1/2 55/1/2
f 47/3/2 48/3/2 56/3/2
f 55/6/2 47/6/2 56/6/2
f 48/6/2 49/6/2 57/6/2
f 56/3/2 48/3/2 57/3/2
f 49/2/2 50/2/2 58/2/2
f 57/6/2 49/6/2 58/6/2
f 50/6/2 51/6/2 59/6/2
f 58/2/2 50/2/2 59/2/2
f 59/6/2 51/6/2 60/6/2
f 63/7/3 62/7/3 61/7/3
f 64/7/3 62/7/3 63/7/3
f 67/6/3 66/6/3 65/6/3
f 68/6/3 66/6/3 67/6/3
f 69/6/3 67/6/3 65/6/3
f 70/6/3 66/6/3 68/6/3
f 71/6/3 69/6/3 65/6/3
f 71/6/3 70/6/3 69/6/3
f 72/6/3 66/6/3 70/6/3
f 72/6/3 70/6/3 71/6/3
f 75/7/3 74/7/3 73/7/3
f 76/7/3 74/7/3 75/7/3
f 77/7/4 78/7/4 79/7/4
f 79/7/4 78/7/4 80/7/4
f 81/6/4 82/6/4 83/6/4
f 83/6/4 82/6/4 84/6/4
f 81/6/4 83/6/4 85/6/4
f 84/6/4 82/6/4 86/6/4
f 81/6/4 85/6/4 87/6/4
f 85/6/4 86/6/4 87/6/4
f 86/6/4 82/6/4 88/6/4
f 87/6/4 86/6/4 88/6/4
f 89/7/4 90/7/4 91/7/4
f 91/7/4 90/7/4 92/7/4
f 95/7/5 94/7/5 93/7/5
f 96/7/5 94/7/5 95/7/5
f 99/7/5 98/7/5 97/7/5
f 100/7/5 98/7/5 99/7/5
f 103/6/5 102/6/5 101/6/5
f 104/6/5 102/6/5 103/6/5
f 105/6/5 102/6/5 104/6/5
f 106/6/5 102/6/5 105/6/5
f 107/4/5 104/4/5 103/4/5
f 108/6/5 105/6/5 104/6/5
f 108/4/5 104/4/5 107/4/5
f 109/4/5 106/4/5 105/4/5
f 109/6/5 105/6/5 108/6/5
f 110/4/5 106/4/5 109/4/5
f 111/1/5 108/1/5 107/1/5
f 112/6/5 109/6/5 108/6/5
f 112/1/5 108/1/5 111/1/5
f 113/1/5 110/1/5 109/1/5
f 113/6/5 109/6/5 112/6/5
f 114/1/5 110/1/5 113/1/5
f 115/6/5 112/6/5 111/6/5
f 115/6/5 113/6/5 112/6/5
f 115/6/5 114/6/5 113/6/5
f 116/6/5 114/6/5 115/6/5
f 117/6/5 114/6/5 116/6/5
f 118/6/5 114/6/5 117/6/5
f 119/3/5 116/3/5 115/3/5
f 120/6/5 117/6/5 116/6/5
f 120/3/5 116/3/5 119/3/5
f 121/3/5 118/3/5 117/3/5
f 121/6/5 117/6/5 120/6/5
f 122/3/5 118/3/5 121/3/5
f 123/6/5 120/6/5 119/6/5
f 123/6/5 121/6/5 120/6/5
f 123/6/5 122/6/5 121/6/5
f 124/6/5 122/6/5 123/6/5
f 125/6/5 123/6/5 119/6/5
f 126/5/5 124/5/5 123/5/5
f 126/6/5 123/6/5 125/6/5
f 127/6/5 122/6/5 124/6/5
f 127/5/5 124/5/5 126/5/5
f 128/6/5 122/6/5 127/6/5
f 129/2/5 126/2/5 125/2/5
f 130/6/5 127/6/5 126/6/5
f 130/2/5 126/2/5 129/2/5
f 131/2/5 128/2/5 127/2/5
f 131/6/5 127/6/5 130/6/5
f 132/2/5 128/2/5 131/2/5
f 133/6/5 130/6/5 129/6/5
f 133/6/5 131/6/5 130/6/5
f 133/6/5 132/6/5 131/6/5
f 134/6/5 132/6/5 133/6/5
f 137/7/5 136/7/5 135/7/5
f 138/7/5 136/7/5 137/7/5
f 141/7/5 140/7/5 139/7/5
f 142/7/5 140/7/5 141/7/5
f 143/7/6 144/7/6 145/7/6
f 145/7/6 144/7/6 146/7/6
f 147/7/6 148/7/6 149/7/6
f 149/7/6 148/7/6 150/7/6
f 151/6/6 152/6/6 153/6/6
f 153/6/6 152/6/6 154/6/6
f 153/4/6 154/4/6 155/4/6
f 155/4/6 154/4/6 156/4/6
f 155/1/6 156/1/6 157/1/6
f 157/1/6 156/1/6 158/1/6
f 157/6/6 158/6/6 159/6/6
f 159/6/6 158/6/6 160/6/6
f 159/3/6 160/3/6 161/3/6
f 161/3/6 160/3/6 162/3/6
f 161/6/6 162/6/6 163/6/6
f 163/6/6 162/6/6 164/6/6
f 163/2/6 164/2/6 165/2/6
f 165/2/6 164/2/6 166/2/6
f 165/6/6 166/6/6 167/6/6
f 167/6/6 166/6/6 168/6/6
