# MagicaVoxel @ Ephtracy

# group
o 

# material
mtllib 25.mtl
usemtl palette

# normals
vn -1 0 0
vn 1 0 0
vn 0 0 1
vn 0 0 -1
vn 0 -1 0
vn 0 1 0

# texcoords
vt 0.306641 0.5
vt 0.861328 0.5
vt 0.982422 0.5

# verts
v 1.6 2 -2.2
v 1.6 2 -2.4
v 1.6 2.6 -2.1
v 1.6 2.6 -2.2
v 1.6 2.6 -2.4
v 1.6 2.6 -2.5
v 1.6 3 -2.2
v 1.6 3 -2.4
v 1.6 3.1 -2.1
v 1.6 3.1 -2.5
v 2.2 2 -2.2
v 2.2 2 -2.4
v 2.2 2.6 -2.2
v 2.2 2.6 -2.4
v 1.7 2 -2.2
v 1.7 2 -2.4
v 1.7 2.6 -2.2
v 1.7 2.6 -2.4
v 2.3 2 -2.2
v 2.3 2 -2.4
v 2.3 2.6 -2.1
v 2.3 2.6 -2.2
v 2.3 2.6 -2.4
v 2.3 2.6 -2.5
v 2.3 3 -2.2
v 2.3 3 -2.4
v 2.3 3.1 -2.1
v 2.3 3.1 -2.5
v 1.6 2.6 -2.1
v 1.6 3.1 -2.1
v 2.3 2.6 -2.1
v 2.3 3.1 -2.1
v 1.6 2 -2.2
v 1.6 2.6 -2.2
v 1.7 2 -2.2
v 1.7 2.6 -2.2
v 2.2 2 -2.2
v 2.2 2.6 -2.2
v 2.3 2 -2.2
v 2.3 2.6 -2.2
v 1.6 2 -2.4
v 1.6 2.6 -2.4
v 1.7 2 -2.4
v 1.7 2.6 -2.4
v 2.2 2 -2.4
v 2.2 2.6 -2.4
v 2.3 2 -2.4
v 2.3 2.6 -2.4
v 1.6 2.6 -2.5
v 1.6 3.1 -2.5
v 2.3 2.6 -2.5
v 2.3 3.1 -2.5
v 1.6 2 -2.2
v 1.7 2 -2.2
v 2.2 2 -2.2
v 2.3 2 -2.2
v 1.6 2 -2.4
v 1.7 2 -2.4
v 2.2 2 -2.4
v 2.3 2 -2.4
v 1.6 2.6 -2.1
v 2.3 2.6 -2.1
v 1.6 2.6 -2.2
v 1.7 2.6 -2.2
v 2.2 2.6 -2.2
v 2.3 2.6 -2.2
v 1.6 2.6 -2.4
v 1.7 2.6 -2.4
v 2.2 2.6 -2.4
v 2.3 2.6 -2.4
v 1.6 2.6 -2.5
v 2.3 2.6 -2.5
v 1.6 3.1 -2.1
v 2.3 3.1 -2.1
v 1.6 3.1 -2.5
v 2.3 3.1 -2.5

# faces
f 4/3/1 2/3/1 1/3/1
f 5/3/1 2/3/1 4/3/1
f 7/2/1 4/2/1 3/2/1
f 7/3/1 5/3/1 4/3/1
f 8/2/1 6/2/1 5/2/1
f 8/3/1 5/3/1 7/3/1
f 9/2/1 7/2/1 3/2/1
f 9/2/1 8/2/1 7/2/1
f 10/2/1 6/2/1 8/2/1
f 10/2/1 8/2/1 9/2/1
f 13/3/1 12/3/1 11/3/1
f 14/3/1 12/3/1 13/3/1
f 15/3/2 16/3/2 17/3/2
f 17/3/2 16/3/2 18/3/2
f 19/3/2 20/3/2 22/3/2
f 22/3/2 20/3/2 23/3/2
f 21/2/2 22/2/2 25/2/2
f 22/3/2 23/3/2 25/3/2
f 23/2/2 24/2/2 26/2/2
f 25/3/2 23/3/2 26/3/2
f 21/2/2 25/2/2 27/2/2
f 25/2/2 26/2/2 27/2/2
f 26/2/2 24/2/2 28/2/2
f 27/2/2 26/2/2 28/2/2
f 31/2/3 30/2/3 29/2/3
f 32/2/3 30/2/3 31/2/3
f 35/3/3 34/3/3 33/3/3
f 36/3/3 34/3/3 35/3/3
f 39/3/3 38/3/3 37/3/3
f 40/3/3 38/3/3 39/3/3
f 41/3/4 42/3/4 43/3/4
f 43/3/4 42/3/4 44/3/4
f 45/3/4 46/3/4 47/3/4
f 47/3/4 46/3/4 48/3/4
f 49/2/4 50/2/4 51/2/4
f 51/2/4 50/2/4 52/2/4
f 57/3/5 54/3/5 53/3/5
f 58/3/5 54/3/5 57/3/5
f 59/3/5 56/3/5 55/3/5
f 60/3/5 56/3/5 59/3/5
f 63/2/5 62/2/5 61/2/5
f 64/2/5 62/2/5 63/2/5
f 65/2/5 62/2/5 64/2/5
f 66/2/5 62/2/5 65/2/5
f 68/1/5 65/1/5 64/1/5
f 69/1/5 65/1/5 68/1/5
f 71/2/5 68/2/5 67/2/5
f 71/2/5 70/2/5 69/2/5
f 71/2/5 69/2/5 68/2/5
f 72/2/5 70/2/5 71/2/5
f 73/2/6 74/2/6 75/2/6
f 75/2/6 74/2/6 76/2/6
