# MagicaVoxel @ Ephtracy

# group
o 

# material
mtllib 27.mtl
usemtl palette

# normals
vn -1 0 0
vn 1 0 0
vn 0 0 1
vn 0 0 -1
vn 0 -1 0
vn 0 1 0

# texcoords
vt 0.0644531 0.5
vt 0.306641 0.5
vt 0.974609 0.5

# verts
v 3.7 2 -3.3
v 3.7 2 -3.6
v 3.7 2.1 -3.3
v 3.7 2.1 -3.6
v 3.8 2.1 -3.4
v 3.8 2.1 -3.5
v 3.8 2.5 -3.4
v 3.8 2.5 -3.5
v 3.9 2.1 -3.4
v 3.9 2.1 -3.5
v 3.9 2.5 -3.4
v 3.9 2.5 -3.5
v 4 2 -3.3
v 4 2 -3.6
v 4 2.1 -3.3
v 4 2.1 -3.6
v 3.7 2 -3.3
v 3.7 2.1 -3.3
v 4 2 -3.3
v 4 2.1 -3.3
v 3.8 2.1 -3.4
v 3.8 2.5 -3.4
v 3.9 2.1 -3.4
v 3.9 2.5 -3.4
v 3.8 2.1 -3.5
v 3.8 2.5 -3.5
v 3.9 2.1 -3.5
v 3.9 2.5 -3.5
v 3.7 2 -3.6
v 3.7 2.1 -3.6
v 4 2 -3.6
v 4 2.1 -3.6
v 3.7 2 -3.3
v 4 2 -3.3
v 3.8 2 -3.4
v 3.9 2 -3.4
v 3.8 2 -3.5
v 3.9 2 -3.5
v 3.7 2 -3.6
v 4 2 -3.6
v 3.7 2.1 -3.3
v 4 2.1 -3.3
v 3.8 2.1 -3.4
v 3.9 2.1 -3.4
v 3.8 2.1 -3.5
v 3.9 2.1 -3.5
v 3.7 2.1 -3.6
v 4 2.1 -3.6
v 3.8 2.5 -3.4
v 3.9 2.5 -3.4
v 3.8 2.5 -3.5
v 3.9 2.5 -3.5

# faces
f 3/3/1 2/3/1 1/3/1
f 4/3/1 2/3/1 3/3/1
f 7/1/1 6/1/1 5/1/1
f 8/1/1 6/1/1 7/1/1
f 9/1/2 10/1/2 11/1/2
f 11/1/2 10/1/2 12/1/2
f 13/3/2 14/3/2 15/3/2
f 15/3/2 14/3/2 16/3/2
f 19/3/3 18/3/3 17/3/3
f 20/3/3 18/3/3 19/3/3
f 23/1/3 22/1/3 21/1/3
f 24/1/3 22/1/3 23/1/3
f 25/1/4 26/1/4 27/1/4
f 27/1/4 26/1/4 28/1/4
f 29/3/4 30/3/4 31/3/4
f 31/3/4 30/3/4 32/3/4
f 35/3/5 34/3/5 33/3/5
f 36/3/5 34/3/5 35/3/5
f 37/3/5 35/3/5 33/3/5
f 37/2/5 36/2/5 35/2/5
f 38/3/5 34/3/5 36/3/5
f 38/2/5 36/2/5 37/2/5
f 39/3/5 37/3/5 33/3/5
f 39/3/5 38/3/5 37/3/5
f 40/3/5 34/3/5 38/3/5
f 40/3/5 38/3/5 39/3/5
f 41/3/6 42/3/6 43/3/6
f 43/3/6 42/3/6 44/3/6
f 41/3/6 43/3/6 45/3/6
f 44/3/6 42/3/6 46/3/6
f 41/3/6 45/3/6 47/3/6
f 45/3/6 46/3/6 47/3/6
f 46/3/6 42/3/6 48/3/6
f 47/3/6 46/3/6 48/3/6
f 49/1/6 50/1/6 51/1/6
f 51/1/6 50/1/6 52/1/6
