# MagicaVoxel @ Ephtracy

# group
o 

# material
mtllib rez5.mtl
usemtl palette

# normals
vn -1 0 0
vn 1 0 0
vn 0 0 1
vn 0 0 -1
vn 0 -1 0
vn 0 1 0

# texcoords
vt 0.0644531 0.5
vt 0.306641 0.5
vt 0.982422 0.5

# verts
v 2 2.3 -1.7
v 2 2.3 -1.8
v 2 2.3 -2.1
v 2 2.3 -2.2
v 2 2.4 -1.8
v 2 2.4 -1.9
v 2 2.4 -2
v 2 2.4 -2.1
v 2 2.5 -1.7
v 2 2.5 -1.8
v 2 2.5 -2.1
v 2 2.5 -2.2
v 2 2.6 -1.8
v 2 2.6 -1.9
v 2 2.6 -2
v 2 2.6 -2.1
v 2.2 2.3 -1.7
v 2.2 2.3 -1.8
v 2.2 2.3 -2.1
v 2.2 2.3 -2.2
v 2.2 2.4 -1.8
v 2.2 2.4 -1.9
v 2.2 2.4 -2
v 2.2 2.4 -2.1
v 2.2 2.5 -1.7
v 2.2 2.5 -1.8
v 2.2 2.5 -2.1
v 2.2 2.5 -2.2
v 2.2 2.6 -1.8
v 2.2 2.6 -1.9
v 2.2 2.6 -2
v 2.2 2.6 -2.1
v 2 2.3 -1.7
v 2 2.5 -1.7
v 2.2 2.3 -1.7
v 2.2 2.5 -1.7
v 2 2.5 -1.8
v 2 2.6 -1.8
v 2.2 2.5 -1.8
v 2.2 2.6 -1.8
v 2 2.3 -2.1
v 2 2.4 -2.1
v 2.2 2.3 -2.1
v 2.2 2.4 -2.1
v 2 2.3 -1.8
v 2 2.4 -1.8
v 2.2 2.3 -1.8
v 2.2 2.4 -1.8
v 2 2.5 -2.1
v 2 2.6 -2.1
v 2.2 2.5 -2.1
v 2.2 2.6 -2.1
v 2 2.3 -2.2
v 2 2.5 -2.2
v 2.2 2.3 -2.2
v 2.2 2.5 -2.2
v 2 2.3 -1.7
v 2.2 2.3 -1.7
v 2 2.3 -1.8
v 2.2 2.3 -1.8
v 2 2.3 -2.1
v 2.2 2.3 -2.1
v 2 2.3 -2.2
v 2.2 2.3 -2.2
v 2 2.4 -1.8
v 2.2 2.4 -1.8
v 2 2.4 -1.9
v 2.2 2.4 -1.9
v 2 2.4 -2
v 2.2 2.4 -2
v 2 2.4 -2.1
v 2.2 2.4 -2.1
v 2 2.5 -1.7
v 2.2 2.5 -1.7
v 2 2.5 -1.8
v 2.2 2.5 -1.8
v 2 2.5 -2.1
v 2.2 2.5 -2.1
v 2 2.5 -2.2
v 2.2 2.5 -2.2
v 2 2.6 -1.8
v 2.2 2.6 -1.8
v 2 2.6 -1.9
v 2.2 2.6 -1.9
v 2 2.6 -2
v 2.2 2.6 -2
v 2 2.6 -2.1
v 2.2 2.6 -2.1

# faces
f 5/3/1 2/3/1 1/3/1
f 8/3/1 4/3/1 3/3/1
f 9/3/1 5/3/1 1/3/1
f 10/2/1 6/2/1 5/2/1
f 10/3/1 5/3/1 9/3/1
f 11/2/1 8/2/1 7/2/1
f 11/3/1 4/3/1 8/3/1
f 12/3/1 4/3/1 11/3/1
f 13/2/1 6/2/1 10/2/1
f 14/1/1 7/1/1 6/1/1
f 14/2/1 6/2/1 13/2/1
f 15/2/1 11/2/1 7/2/1
f 15/1/1 7/1/1 14/1/1
f 16/2/1 11/2/1 15/2/1
f 17/3/2 18/3/2 21/3/2
f 19/3/2 20/3/2 24/3/2
f 17/3/2 21/3/2 25/3/2
f 21/2/2 22/2/2 26/2/2
f 25/3/2 21/3/2 26/3/2
f 23/2/2 24/2/2 27/2/2
f 24/3/2 20/3/2 27/3/2
f 27/3/2 20/3/2 28/3/2
f 26/2/2 22/2/2 29/2/2
f 22/1/2 23/1/2 30/1/2
f 29/2/2 22/2/2 30/2/2
f 23/2/2 27/2/2 31/2/2
f 30/1/2 23/1/2 31/1/2
f 31/2/2 27/2/2 32/2/2
f 35/3/3 34/3/3 33/3/3
f 36/3/3 34/3/3 35/3/3
f 39/2/3 38/2/3 37/2/3
f 40/2/3 38/2/3 39/2/3
f 43/3/3 42/3/3 41/3/3
f 44/3/3 42/3/3 43/3/3
f 45/3/4 46/3/4 47/3/4
f 47/3/4 46/3/4 48/3/4
f 49/2/4 50/2/4 51/2/4
f 51/2/4 50/2/4 52/2/4
f 53/3/4 54/3/4 55/3/4
f 55/3/4 54/3/4 56/3/4
f 59/3/5 58/3/5 57/3/5
f 60/3/5 58/3/5 59/3/5
f 63/3/5 62/3/5 61/3/5
f 64/3/5 62/3/5 63/3/5
f 67/2/5 66/2/5 65/2/5
f 68/2/5 66/2/5 67/2/5
f 69/1/5 68/1/5 67/1/5
f 70/1/5 68/1/5 69/1/5
f 71/2/5 70/2/5 69/2/5
f 72/2/5 70/2/5 71/2/5
f 73/3/6 74/3/6 75/3/6
f 75/3/6 74/3/6 76/3/6
f 77/3/6 78/3/6 79/3/6
f 79/3/6 78/3/6 80/3/6
f 81/2/6 82/2/6 83/2/6
f 83/2/6 82/2/6 84/2/6
f 83/1/6 84/1/6 85/1/6
f 85/1/6 84/1/6 86/1/6
f 85/2/6 86/2/6 87/2/6
f 87/2/6 86/2/6 88/2/6
